<svg width="24" height="24" viewBox="0 0 24 24" fill="none" xmlns="http://www.w3.org/2000/svg">
<path d="M0.553852 12.4892H23.4462C23.7185 12.4892 23.9385 12.2692 23.9385 11.9969C23.9385 11.7246 23.7185 11.5046 23.4462 11.5046H1.74308L4.73078 8.51693C4.92308 8.32463 4.92308 8.01232 4.73078 7.82001C4.53847 7.6277 4.22616 7.6277 4.03385 7.82001L0.204622 11.6492C0.0630836 11.7908 0.0215454 12.0016 0.0984688 12.1862C0.175392 12.3692 0.355391 12.4892 0.553852 12.4892Z" fill="currentcolor"/>
<path d="M4.38772 16.3231C4.51387 16.3231 4.64002 16.2754 4.73541 16.1785C4.92772 15.9862 4.92772 15.6739 4.73541 15.4816L0.901573 11.6477C0.709266 11.4554 0.39696 11.4554 0.204653 11.6477C0.0123458 11.84 0.0123458 12.1523 0.204653 12.3446L4.03849 16.1785C4.13541 16.2754 4.26156 16.3231 4.38772 16.3231Z" fill="currentcolor"/>
</svg>
