<?xml version="1.0" standalone="no"?>
<!DOCTYPE svg PUBLIC "-//W3C//DTD SVG 1.1//EN" "http://www.w3.org/Graphics/SVG/1.1/DTD/svg11.dtd">
<svg xmlns="http://www.w3.org/2000/svg">
<metadata>Copyright (C) 2023 by original authors @ fontello.com</metadata>
<defs>
<font id="fontello" horiz-adv-x="1000" >
<font-face font-family="fontello" font-weight="400" font-stretch="normal" units-per-em="1000" ascent="850" descent="-150" />
<missing-glyph horiz-adv-x="1000" />
<glyph glyph-name="up-arrow" unicode="&#xe800;" d="M549 611v-761h-125v761l-336-335-88 88 486 486 486-486-88-88-335 335z" horiz-adv-x="1000" />

<glyph glyph-name="thumb" unicode="&#xe801;" d="M765 211c0 17-6 34-18 46-12 12-28 19-45 19h-191c26 66 26 140 0 206 0 0 0 1-1 2-5 10-13 18-23 23-9 6-20 9-31 8-12 0-22-4-31-11-10-6-17-15-21-25-1-2-1-4-2-6l-4-66c-7-37-27-72-56-96-12-4-33-19-89-74v2c0 9-4 17-10 23-5 6-14 10-22 10h-159c-9 0-17-4-23-10-6-6-9-14-9-23v-327c0-9 3-17 9-23 6-7 14-10 23-10h159c8 0 17 3 22 10 6 6 10 14 10 23v1c44-10 66-22 93-47 11-11 25-16 39-16h247c12 0 24 3 34 10 10 7 18 16 23 27 6 11 7 24 6 36-2 12-6 24-14 33 20 13 34 34 34 58 0 14-5 28-14 40 20 12 35 34 35 59 0 13-4 26-12 37 12 5 23 13 30 24 7 11 11 24 11 37z m-543-299c0-1 0-1 0-1 0-1-1-1-1-1h-159c-1 0-1 0-1 1-1 0-1 0-1 1v327c0 0 0 1 1 1 0 0 0 0 1 0h159c0 0 1 0 1 0 0 0 0-1 0-1v-327z m480 266h-53c-4 0-8-2-10-5-3-3-5-7-5-11 0-4 2-8 5-11 2-3 6-5 10-5h24c8 0 17-3 23-10 6-6 9-15 9-23 0-18-16-36-34-37-6 2-13 3-20 3-4 0-7-2-10-5-3-3-5-7-5-11 0-4 2-8 5-11 3-3 6-4 10-4 4 0 8-1 12-3 0 0 1 0 1 0 6-3 11-7 15-12 3-6 5-13 5-19 0-18-17-35-35-36-6 1-11 2-17 2-4 0-8-2-10-5-3-3-5-7-5-11 0-4 2-8 5-11 2-3 6-4 10-4 3 0 7-1 10-2 0 0 0 0 1 0 7-3 13-8 17-15 4-7 6-15 5-23-2-7-6-15-11-20-6-5-14-8-22-8h-247c-3 0-7 1-10 2-3 1-6 3-8 6-32 30-61 44-114 56v249l2 3c75 74 93 84 97 85 2 0 5 1 6 3 37 29 62 71 70 118 0 0 0 1 0 1l5 64c2 5 6 9 10 11 5 3 10 5 15 5 5 0 10-1 15-4 4-3 8-6 10-11 13-32 19-67 17-102-2-34-11-68-26-99-2-3-2-5-2-8 0-3 1-5 2-7 1-3 3-5 6-6 2-1 4-2 7-2h215c9 0 17-4 23-10 6-6 10-15 10-24 0-9-4-17-10-24-6-6-14-9-23-9v0z m-531 11v-2c0-4-2-8-5-11-2-3-6-5-10-5-4 0-8 2-11 5-3 3-4 7-4 11v2c0 4 1 8 4 11 3 3 7 5 11 5 4 0 8-2 10-5 3-3 5-7 5-11z m456 527c-1 3-3 6-5 7-3 2-5 4-8 4l-109 10-44 104c-1 2-3 5-5 6-3 2-6 3-9 3-3 0-5-1-8-3-2-1-4-4-6-6l-43-104-109-10c-3 0-6-2-8-4-2-1-4-4-5-7-1-3-1-6 0-9 1-3 2-5 5-7l82-75-24-110c-1-3-1-6 0-9 1-2 3-5 6-7 2-1 5-2 8-3 3 0 6 1 8 3l94 57 95-57c2-2 5-3 8-3 3 1 6 2 8 3 3 2 4 5 5 7 2 3 2 6 1 9l-24 110 82 75c2 2 4 4 5 7 1 3 1 6 0 9z m-114-73c-2-2-3-5-4-7-1-3-1-6 0-9l18-83-72 43c-2 2-5 3-8 3-2 0-5-1-7-3l-72-43 18 83c1 3 1 6 0 9-1 2-2 5-5 7l-62 56 83 8c3 0 5 1 7 3 3 2 4 4 5 6l33 79 33-79c2-2 3-4 5-6 3-2 5-3 8-3l83-8-63-56z m381-18c-1 2-3 5-5 7-2 2-5 3-8 3l-77 8-30 72c-1 3-3 6-6 7-2 2-5 3-8 3-3 0-6-1-9-3-2-1-4-4-5-7l-31-72-76-8c-3 0-6-1-9-3-2-2-4-5-4-7-1-3-1-6-1-9 1-3 3-6 5-8l58-52-17-78c-1-3-1-6 1-9 1-3 2-5 5-7 2-2 5-3 8-3 3 0 6 1 8 2l67 41 66-41c3-1 6-2 9-2 3 0 5 1 8 3 2 2 4 4 5 7 1 3 1 6 1 9l-17 78 58 52c2 2 3 5 4 8 1 3 1 6 0 9h0z m-89-52c-2-2-4-4-4-7-1-3-1-5-1-8l11-51-43 26c-3 2-5 3-8 3-3 0-6-1-8-3l-44-26 11 51c1 3 1 5 0 8-1 3-2 5-4 7l-39 35 51 4c3 1 5 2 8 3 2 2 4 4 5 7l20 48 20-48c1-3 3-5 5-7 2-1 5-2 8-3l50-4-38-35z m-549 62l-76 8-31 72c-1 3-3 6-6 7-2 2-5 3-8 3-3 0-6-1-8-3-3-1-5-4-6-7l-30-72-77-8c-3 0-6-1-8-3-3-2-4-5-5-7-1-3-1-6 0-9 0-3 2-6 4-8l58-52-17-78c0-3 0-6 1-9 1-3 3-5 5-7 2-2 5-3 8-3 3 0 6 1 9 2l66 41 66-41c3-1 6-2 9-2 3 0 6 1 8 3 2 2 4 4 5 7 1 3 2 6 1 9l-17 78 58 52c2 2 4 5 5 8 0 3 0 6-1 9-1 2-2 5-5 7-2 2-5 3-8 3l0 0z m-76-62c-2-2-3-4-4-7-1-3-1-5 0-8l11-51-44 26c-3 2-5 3-8 3-3 0-5-1-8-3l-44-26 12 51c0 3 0 5-1 8-1 3-2 5-4 7l-38 35 50 4c3 1 6 2 8 3 2 2 4 4 5 7l20 48 20-48c1-3 3-5 5-7 2-1 5-2 8-3l50-4-38-35z" horiz-adv-x="905" />

<glyph glyph-name="group" unicode="&#xe802;" d="M614 432c16 17 27 40 27 65 0 50-41 91-92 91-39 0-73-25-86-60-5 1-11 1-17 1-5 0-11 0-16-1-13 35-47 60-86 60-51 0-92-41-92-91 0-25 11-48 27-65-40-22-66-65-66-112 0-8 7-15 15-15 8 0 15 7 15 15 0 41 26 79 65 93 11-4 23-7 36-7 5 0 11 1 16 2 5-13 12-25 22-34-40-23-66-66-66-113 0-8 7-15 15-15 8 0 15 7 15 15 0 40 24 77 61 92 1 1 2 1 3 2 11-5 24-8 36-8 13 0 25 3 36 8 39-15 65-53 65-94 0-8 7-15 15-15 8 0 15 7 15 15 0 47-26 90-66 113 9 9 17 21 22 34 5-1 11-2 16-2 13 0 25 3 36 7 39-14 65-52 65-93 0-8 7-15 15-15 8 0 15 7 15 15 0 47-26 90-66 112z m-259 6c0 0 0-1 0-2-4 0-8-1-11-1-35 0-62 28-62 62 0 34 27 62 62 62 26 0 49-17 58-41-28-16-47-46-47-80z m29 0c0 34 28 62 62 62 35 0 63-28 63-62 0-34-28-61-63-61-34 0-62 27-62 61z m154-2c0 1 0 2 0 2 0 34-19 64-47 80 9 24 32 41 58 41 35 0 62-28 62-62 0-34-27-62-62-62-4 0-7 1-11 1z m290-219v266c37 7 65 39 65 78 0 43-36 79-79 79-25 0-46-11-61-28l-232 133c3 8 5 17 5 26 0 44-36 79-80 79-43 0-79-35-79-79 0-9 2-18 5-26l-232-133c-15 17-37 28-61 28-43 0-79-36-79-79 0-39 28-71 65-78v-266c-37-7-65-39-65-78 0-43 36-78 79-78 24 0 46 10 61 27l232-133c-3-8-5-17-5-26 0-44 36-79 79-79 44 0 80 35 80 79 0 9-2 18-5 26l232 133c15-17 37-27 61-27 43 0 79 35 79 78 0 39-28 71-65 78z m-14 393c27 0 49-22 49-49 0-28-22-50-49-50-28 0-50 22-50 50 0 27 22 49 50 49z m-368 211c28 0 50-22 50-50 0-27-22-49-49-49 0 0 0 0-1 0 0 0 0 0 0 0-27 0-49 22-49 49 0 28 22 50 49 50z m-416-260c0 27 22 49 49 49 28 0 50-22 50-49 0-28-22-50-50-50-27 0-49 22-49 50z m49-471c-27 0-49 22-49 49 0 28 22 50 49 50 28 0 50-22 50-50 0-27-22-49-50-49z m367-211c-27 0-49 22-49 50 0 27 22 49 49 49 28 0 50-22 50-49 0-28-22-50-50-50z m61 101c-12 14-28 23-46 26v57c0 8-6 15-15 15-8 0-14-7-14-15v-57c-18-3-34-12-46-26l-232 133c3 9 5 17 5 26 0 10-2 18-5 27l50 28c7 4 9 13 5 20-4 7-13 9-20 5l-49-28c-12 13-28 23-46 26v266c18 4 34 13 46 26l49-28c2-1 5-2 7-2 5 0 10 3 13 7 4 7 2 16-5 20l-50 29c3 8 5 17 5 26 0 9-2 18-5 26l232 133c12-14 28-23 46-26v-57c0-8 6-14 14-14 9 0 15 6 15 14v57c18 3 34 12 46 26l232-133c-3-8-5-17-5-26 0-9 2-18 5-26l-50-29c-7-4-9-13-5-20 3-4 8-7 13-7 2 0 5 1 7 2l49 28c12-13 28-22 46-26v-266c-18-3-34-13-46-26l-49 28c-7 4-16 2-20-5-4-7-2-16 5-20l50-28c-3-9-5-17-5-27 0-9 2-17 5-26l-232-133z m307 110c-28 0-50 22-50 49 0 28 22 50 50 50 27 0 49-22 49-50 0-27-22-49-49-49z m-244 109h-44c-8 0-15-7-15-15 0-8 7-15 15-15h44c8 0 15 7 15 15 0 8-7 15-15 15z m0-58h-247c-8 0-15-6-15-14 0-8 7-15 15-15h247c8 0 15 7 15 15 0 8-7 14-15 14z m-247 28h0c8 0 15 7 15 15 0 8-7 15-15 15h0c-8 0-15-7-15-15 0-8 7-15 15-15z m51 0c8 0 15 7 15 15 0 8-7 15-15 15h0c-8 0-15-7-15-15 0-8 7-15 15-15h0z m51 0c8 0 15 7 15 15 0 8-7 15-15 15h0c-8 0-15-7-15-15 0-8 7-15 15-15h0z" horiz-adv-x="913" />

<glyph glyph-name="thumb-screw" unicode="&#xe803;" d="M268 106c-1 2-3 5-5 7-2 2-4 4-7 4l-93 25c-3 1-6 1-9 0-2 0-5-2-7-4l-68-68c-2-2-4-5-4-8-1-2-1-5 0-8l24-93c1-3 3-6 5-8 2-2 4-3 7-4l93-25c2 0 3 0 4 0 5 0 9 1 12 5l68 68c2 2 4 4 5 7 0 3 0 6 0 9l-25 93z m-65-147l-74 20-20 74 55 55 74-20 20-75-55-54z m793 133l-94 94c-1 2-3 3-5 4-2 1-4 1-7 1-2 0-4 0-6-1-2-1-4-2-5-4l-12-11c-20 23-32 52-36 82l-11 107c-4 34-19 65-43 89l-4 4 21 22c2 2 4 3 6 4 2 1 4 1 6 1 31-2 61 4 89 17 28 13 52 33 70 58 18 25 30 54 34 84 4 31 0 62-11 91-1 2-3 4-5 6-2 2-5 3-7 4-3 0-6 0-9 0-2-1-5-3-7-5l-102-102-62 9-8 62 102 102c2 2 3 4 4 7 1 3 1 5 0 8 0 3-2 5-3 8-2 2-5 3-7 4-29 12-60 15-90 12-31-4-60-16-85-34-25-18-45-42-58-70-13-28-19-59-17-89 0-2 0-5-1-7-1-2-2-4-4-5l-68-69-48 47c-9 9-20 16-32 18-13 3-26 2-38-2-12-5-22-12-30-22-7-11-12-23-13-35-12 3-25 2-37-2-12-3-23-11-31-21-8-10-13-22-14-34-2-13 1-26 6-37-13-2-25-8-34-18-9-8-15-18-18-30-3-11-2-23 1-34-13-1-25-5-35-13-11-7-18-18-23-30-4-12-5-25-2-37 2-12 9-24 18-33l23-23-48-48c-1-2-3-3-5-4-2 0-4-1-7-1-3 0-7 0-11 1-24 0-48-5-70-14-22-10-42-23-59-40-35-34-54-81-54-130 0-48 19-95 54-129 34-35 81-54 129-54h1c24 0 48 5 70 14 22 9 42 23 59 40 17 17 31 37 40 59 9 22 14 46 14 70 0 4 0 8-1 11 0 2 1 5 2 7 0 2 2 4 3 5l48 48 189-189-12-11c-2-2-3-4-4-6-1-2-1-4-1-6 0-2 0-5 1-7 1-2 2-3 4-5l23-24c4-3 8-4 12-4 5 0 9 1 12 4 3 4 5 8 5 12 0 5-2 9-5 12l-12 12 259 259 83-82c3-3 7-5 12-5 4 0 8 2 11 5 4 3 5 7 5 11 0 5-1 9-5 12z m-343 528c5 5 9 11 11 18 3 6 4 13 3 20-1 23 3 46 12 67 9 21 22 40 39 55 18 15 38 26 60 32 22 5 46 6 68 2l-88-88c-2-2-3-4-4-7-1-2-1-5-1-7l12-83c1-3 2-7 5-9 2-3 6-5 9-5l83-12c2 0 5 0 7 1 3 1 5 2 7 4l88 88c4-23 4-46-2-68-6-22-17-43-32-60-15-17-34-31-55-39-21-9-44-13-67-12-7 1-14-1-20-3-7-3-12-6-17-11l-22-22-47 47c-13 12-30 19-47 19-18 0-35-7-47-19l-24 24 69 68z m-210-21c6 6 14 9 23 9 9 0 17-3 24-9l94-95-47-47-94 95c-7 6-10 14-10 23 0 9 3 17 10 24z m-83-59c7 6 15 9 24 9 9 0 17-3 23-9l106-106 2-3c-3-6-4-13-4-21 0-7 1-14 4-21l-2-2c-6-6-14-10-23-10-9 0-17 4-24 10l-106 106c-3 3-5 7-7 11-2 4-3 8-3 12 0 5 1 9 3 13 2 4 4 8 7 11z m-47-94c6 6 15 9 24 9 8 0 17-3 23-9l83-83h0l23-23c7-7 10-15 10-24 0-9-3-17-10-24-6-6-14-9-23-9-9 0-18 3-24 9l-94 95-12 12c-3 3-5 6-7 10-2 4-3 9-3 13 0 4 1 9 3 13 2 4 4 8 7 11z m-69-106c0 4 1 8 3 12 2 4 4 8 7 11 6 6 15 10 24 10 4 0 8-1 13-3 4-1 7-4 10-7l95-94 11-12c7-6 10-15 10-24 0-8-3-17-10-23-6-6-14-10-23-10-9 0-18 4-24 10l-106 106c-3 3-5 7-7 11-2 4-3 8-3 13z m387-401l-188 188 176 177c4 3 5 8 5 12 0 4-1 9-5 12-3 3-7 5-11 5-5 0-9-2-12-5l-248-248c-5-5-9-11-12-17-2-7-3-14-3-21 0-3 1-6 1-9 0-40-16-78-44-106-28-28-67-44-106-44h-1c-40 0-78 16-106 44-28 28-44 67-44 106 0 40 16 78 44 106 28 29 67 44 106 44 3 0 7 0 10 0 6 0 13 1 20 3 6 3 12 7 17 11l48 48 59-59c10-10 23-17 38-19 14-2 29 1 42 9 12 7 22 18 28 31 6 14 7 29 3 43 11 1 21 4 30 10 10 6 17 14 23 23 5 9 8 20 8 31 1 10-2 21-7 31 14 2 26 9 35 18 0 1 1 1 1 1 16-10 35-15 54-13 20 2 37 10 51 24 3 3 7 5 12 5 4 0 8-2 12-5 1-2 2-3 3-5 1-2 1-5 1-7 0-2 0-4-1-6-1-2-2-4-3-6l-12-11c-22-22-34-52-34-83 0-31 12-61 34-82l12-12c1-2 3-3 5-4 2-1 4-1 6-1 2 0 5 0 7 1 2 1 4 2 5 4 3 3 5 7 5 12 0 4-2 8-5 11l-12 12c-15 16-24 37-24 59 0 22 9 43 24 59l12 12c5 5 8 10 11 16 2 6 4 13 4 19 0 7-2 13-4 19-3 6-6 12-11 17-9 9-22 14-35 14-13 0-26-5-36-14-9-10-22-15-35-15-13 0-26 5-35 15-3 3-5 7-5 11 0 5 2 9 5 12l82 82c7 7 15 10 24 10 9 0 17-3 23-10l75-74c19-19 30-43 34-70l12-107c4-37 19-73 45-101l-213-213z" horiz-adv-x="1025" />

<glyph glyph-name="tractor" unicode="&#xe804;" d="M1709-106l-259 191c-20 14-46 17-68 6-2-1-5-3-7-4l-194 143v43h144c39 0 72 27 78 64l70 411h5c14 0 26 11 26 25 0 13-12 24-26 24h-296c-20 0-39-6-56-16-4 39-38 69-78 69h-871c-35 0-68-14-93-38l-77-75c-10-9-10-25 0-35l81-79c5-5 12-7 18-7 6 0 13 2 18 7l73 72h341v-56h-217c-28 0-52-23-52-51v-266h-2c-28 0-52-23-52-51v-186c-32-24-53-62-53-105 0-72 59-130 132-130 65 0 119 45 131 106h454c30-63 94-106 169-106 89 0 164 62 182 145l116-56v-25c0-35 29-64 65-64h283c10 0 20 7 24 17 3 10-1 21-9 27z m-342 534h-131c-1 0-2 0-2 1v213h170l-37-214z m-240 265c0 30 25 55 55 55h240l-10-56h-203c-14 0-25-11-25-25v-238c0-28 23-51 52-51h123l-6-33c-2-13-14-23-28-23h-198v371z m-940 51c-7 0-13-2-18-7l-63-62-45 45 58 57c16 15 36 24 58 24h361v-57h-351z m107-845c-45 0-82 37-82 81 0 45 37 81 82 81 46 0 83-36 83-81 0-44-37-81-83-81z m569 106h-438c-12 60-66 106-131 106-10 0-19-1-28-3v163c0 1 0 2 1 2h81c14 0 25 11 25 24 0 14-11 25-25 25h-28v266c0 1 0 1 1 1h619c14 0 25 11 25 25 0 14-11 25-25 25h-351v162h459c16 0 28-13 28-28v-134h-28c-14 0-25-11-25-25 0-14 11-25 25-25h28v-267h-620c-14 0-25-11-25-25 0-13 11-24 25-24h674v-76c-25 12-53 19-82 19-103 0-187-82-187-183 0-9 1-19 2-28z m185-106c-75 0-136 60-136 134 0 74 61 134 136 134 75 0 136-60 136-134 0-74-61-134-136-134z m298 134v-39l-112 55c-4 44-24 83-53 113v7l166-123c-1-4-1-8-1-13z m65-134c-8 0-15 7-15 15v119c0 8 6 12 8 14 2 0 4 1 7 1 3 0 6-1 9-3l198-146h-207z m-309 159c-14 0-26-11-26-25 0-15-12-28-28-28-16 0-29 13-29 28 0 10 6 20 14 25 13 6 17 21 10 33-7 12-23 16-35 9-24-14-39-39-39-67 0-43 35-77 79-77 43 0 79 34 79 77 0 14-11 25-25 25z m-807-53h-1c-14 0-25-11-25-25 0-13 12-24 26-24 13 0 25 11 25 24 0 14-12 25-25 25z m484 106h-323c-14 0-25-11-25-25 0-14 11-25 25-25h323c14 0 25 11 25 25 0 14-11 25-25 25z m-216 317h-161c-14 0-25-12-25-25 0-14 11-25 25-25h161c14 0 26 11 26 25 0 13-12 25-26 25z m0 105h-161c-14 0-25-11-25-25 0-13 11-24 25-24h161c14 0 26 11 26 24 0 14-12 25-26 25z" horiz-adv-x="1733" />

<glyph glyph-name="user-rating" unicode="&#xe805;" d="M587 298c-5-2-9-7-10-13-2-6 1-12 5-15 5-4 11-6 16-4 139 48 222 189 198 334-24 144-149 250-296 250-146 0-271-106-296-250-24-145 59-286 198-334 9-3 18 2 21 11 3 8-1 18-10 21-29 10-56 25-80 44v18c0 52 32 99 81 117 52-36 121-36 172 0 49-18 81-65 81-117v-18c-24-19-51-34-80-44z m-204 302c0 65 53 117 117 117 65 0 117-52 117-117 0-64-52-117-117-117-64 0-116 53-117 117z m230-98c53 61 48 152-9 207-58 55-150 55-207 0-58-55-63-146-10-207-49-25-82-74-86-129-95 107-89 270 14 370 104 99 267 99 370 0 103-100 110-263 15-370-5 55-37 104-87 129z m-256-646c10-7 24-8 35-2l108 56 109-56c11-6 24-5 35 2 10 8 15 21 13 33l-21 119 87 84c10 9 13 22 9 34-4 12-14 21-27 23l-121 17-54 109c-6 11-17 18-30 18-12 0-24-7-30-18l-54-109-121-17c-12-2-23-11-27-23-3-12 0-25 9-34l87-84-20-119c-3-12 3-25 13-33z m-57 260l129 19c6 0 11 4 13 9l58 116 58-116c3-5 7-9 13-9l129-19-93-90c-4-4-6-10-5-15l22-128-116 61c-5 2-11 2-15 0l-117-61 23 128c0 5-1 11-5 15l-94 90z m-222-3l-16-94c-1-9 1-18 7-25 5-7 14-11 23-11 5 0 9 1 14 4l86 45 86-45c5-3 11-3 16 0 5 4 8 9 8 15 0 6-4 12-9 14l-94 49c-4 3-10 3-15 0l-88-46 17 97c1 5-1 11-5 15l-71 68 98 14c6 1 10 4 13 9l44 89 44-89c2-5 7-8 12-9l105-15c9-1 18 5 19 14 1 9-5 18-14 19l-96 14-43 86c-5 10-16 17-27 17h0c-12 0-22-7-27-17l-43-86-96-14c-11-1-21-9-24-20-4-11-1-23 7-31l69-67z m921 98c-4 11-13 19-25 20l-96 14-43 86c-5 10-15 17-26 17h0c-12 0-22-6-27-17l-43-86-96-14c-6-1-11-4-14-10-2-6-1-12 3-16 4-5 9-8 15-7l105 15c5 1 10 4 13 9l43 89 44-89c3-5 8-8 13-9l98-14-71-68c-4-4-6-10-5-15l17-97-88 46c-5 3-11 3-15 0l-94-49c-5-2-9-8-9-14 0-6 3-11 8-15 5-3 11-3 16 0l86 45 86-45c11-6 23-5 32 2 9 7 14 18 12 30l-16 94 69 67c8 8 11 20 8 31z m-591-147c1 0 2 0 3 1l63 9c5 0 10 4 12 9l29 58c4 8 1 18-7 22-9 4-19 1-23-7l-25-51-54-7c-9-2-15-9-14-18 0-9 8-16 16-16l0 0z" horiz-adv-x="1000" />

<glyph glyph-name="brick" unicode="&#xe806;" d="M17-150h800c9 0 16 7 16 17v150h117c9 0 17 7 17 16v167c0 9-8 17-17 17h-117v150c0 9-7 16-16 16h-31c2 11 0 23-7 32l-75 100 35 26c15 12 24 30 23 49l-2 30c0 9 3 16 10 21l35 26 14-19c3-4 7-6 11-7 1 0 2 0 3 0 3 0 7 1 10 4l137 103c22 16 27 48 10 70l-9 12c-17 22-48 27-70 10l-138-103c-7-6-9-16-3-23l15-20-35-26c-16-12-24-30-23-49l1-30c1-9-3-16-9-21l-35-26-75 100c-8 11-21 17-34 16-13-1-24-9-30-20l-137-255h-391c-9 0-17-7-17-16v-167c0-9 8-17 17-17h116v-133h-116c-9 0-17-7-17-17v-166c0-10 8-17 17-17z m914 963c7 6 18 4 23-3l9-12c6-8 4-18-3-24l-124-93-29 39 124 93z m-631-796h233v-134h-233v134z m133 166h234v-133h-234v133z m367-300h-233v134h233v-134z m133 167h-233v133h233v-133z m-133 167h-233v97l170 36h63v-133z m-226 405c1 2 2 2 3 2l1 0c1 0 3-1 4-2l75-100-68-52c-8-5-9-16-4-23 6-8 16-9 24-4l68 52 76-100c1-2 1-4 1-6-1-1-2-2-3-2l-331-70c-2-1-4 0-5 2-1 2-2 4-1 6l160 297z m-186-323c9-12 24-18 39-15l106 23v-90h-233v133h90l-5-10c-7-13-6-29 3-41z m-355-16h34c9 0 16 8 16 17 0 9-7 17-16 17h-34v33h234v-133h-234v66z m134-100h233v-133h-233v133z m-134-166h234v-134h-234v134z m184 283c0 9-8 17-17 17h-67c-9 0-16-8-16-17 0-9 7-17 16-17h67c9 0 17 8 17 17z" horiz-adv-x="1000" />

<glyph glyph-name="rocket" unicode="&#xe807;" d="M1000 832c0 2 0 5-1 7-1 2-3 4-4 6-2 1-4 3-6 4-2 1-4 1-7 1-14 0-348-2-521-175-40-40-76-84-108-131l-67 32c-24 11-51 11-75 1-24-9-43-28-53-51l-115-233c-2-4-2-7-2-11 1-4 3-7 5-10l62-62c3-3 8-5 12-5 5 0 9 2 13 6 3 3 5 7 5 12 0 5-2 9-5 13l-52 52 109 223c7 15 19 27 34 33 15 6 32 6 47 0l63-30c-53-85-97-175-130-269-2-5-2-10 0-14 2-4 5-8 10-9 35-15 68-37 95-65 27-27 48-60 63-96 1-3 4-6 6-8 3-2 7-3 10-3 98 32 191 77 277 132l29-62c3-8 5-16 5-24 0-8-1-17-5-24-3-8-7-15-13-21-6-5-13-10-20-13l-221-110-53 53c-3 3-8 5-12 5-5 0-9-2-13-6-3-3-5-7-5-12 0-5 2-9 5-13l62-61c2-3 6-5 9-5 4-1 8 0 11 1l232 115c11 5 22 13 31 22 9 9 16 20 21 32 5 12 7 25 7 38 0 13-3 26-8 37l-32 68c47 32 90 68 130 108 173 173 175 508 175 522z m-36-18c-4-101-23-200-55-295-57 101-142 183-244 238 97 33 197 52 299 57z m-566-723c-32 69-87 124-155 157 85 214 190 406 379 491 117-55 212-148 270-264-85-192-279-299-494-384z m-194 74c-3 3-8 5-12 5-5 0-10-1-13-5-1-1-105-96-149-53-1 2-3 3-6 4-2 1-4 1-6 1-3 0-5 0-7-1-2-1-4-2-6-4-21-29 33-48 53-47 66 0 141 70 145 74 4 3 6 8 6 13 0 4-2 9-5 13z m85-111c-5-6-120-130-53-199 3-3 8-5 13-5 4 0 9 2 12 5 3 3 5 8 5 13 1 4-1 9-4 12-43 44 52 148 53 149 3 4 4 8 4 13 0 5-2 9-5 12-4 3-8 5-13 5-5 0-9-2-12-5z m-29 54c-2 2-3 3-6 4-2 1-4 2-6 2-3 0-5-1-7-2-2-1-4-2-6-4l-71-71c-3-3-5-7-5-12 0-5 2-9 5-13 4-3 8-5 13-5 5 0 9 2 13 5l70 71c2 2 3 4 4 6 1 2 1 4 1 7 0 2 0 4-1 6-1 3-2 5-4 6z m328 439c-71-74 36-181 110-110 71 75-35 181-110 110z m85-85c-8-7-19-12-30-12-11 1-21 5-29 13-8 8-12 18-13 29 0 11 5 22 12 30 8 8 19 12 30 12 11 0 22-5 29-12 8-8 13-19 13-30 0-11-4-22-12-30z" horiz-adv-x="1000" />

<glyph glyph-name="flag" unicode="&#xe808;" d="M486 475l63-64c10-10 23-15 37-15 14 0 27 5 37 15l176 176c3 3 5 7 5 12 0 4-2 9-5 12l-234 234c-4 3-8 5-12 5-5 0-9-2-12-5l-122-122-64 64c-10 9-23 15-37 15-14 0-27-6-37-15l-164-164-38 38c-3 3-8 5-12 5-4 0-9-2-12-5l-50-50c-3-3-5-8-5-12 0-5 2-9 5-12l323-323-22-22c-3-3-4-7-4-12v-93l-17-17-5 5c-3 3-8 5-12 5-4 0-9-2-12-5l-251-251 24-24 239 239 161-160-56-55 24-24 67 67c3 3 5 7 5 12 0 4-2 8-5 12l-22 21 94 94 156-156c3-3 7-5 11-5 5 0 9 2 12 5l51 50c3 4 4 8 4 12 0 5-1 9-4 12l-156 156 22 22c3 3 4 7 4 11 0 5-1 9-4 12l-134 134c-4 3-8 5-12 5-5 0-9-2-12-5l-2-1c-2 19-11 38-25 51-3 4-7 5-11 5-5 0-9-1-12-5l-22-21-27 26 111 111z m80 27l-17-17c-4-4-8-10-11-16l-29 29 30 30c4 4 9 6 14 6 5 0 10-2 13-6 4-3 6-8 6-13 0-5-2-10-6-13z m-13 308l211-211-164-164c-4-4-9-6-14-6-5 0-10 2-13 6-4 3-6 8-6 13 0 5 2 10 6 13l17 17c10 10 15 23 15 37 0 14-5 27-15 37l-148 147 111 111z m-248-47c4 3 8 5 13 5 5 0 10-2 14-5l200-200c-6-3-12-6-16-11l-214-214-211 211 214 214z m-238-138l27-26-27-27-27 27 27 26z m663-663l-27-26-143 144 26 26 144-144z m-244 312l110-111-60-60-110 111 60 60z m-52 48c5-10 7-22 5-33-2-11-7-22-15-30l-34-34c-3-3-5-7-5-11 0-5 2-9 5-12 15-15 23-35 23-55 0-21-8-41-23-56l24-23c20 20 32 48 32 78l66-66-93-94-111 110 22 22c3 3 5 7 5 12v93l99 99z m-56-8l-26-26-27 26 27 27 26-27z" horiz-adv-x="820" />

<glyph glyph-name="book" unicode="&#xe809;" d="M1072 52c-6 5-12 9-19 12v138c0 16-7 31-19 41-13 11-29 15-44 13l-17-3 13 111c2 17-4 34-17 46-12 11-28 16-45 14-198-31-337-173-380-224-44 51-182 193-380 224-17 2-33-3-46-14-12-12-18-29-16-46l12-111-16 2c-16 3-32-1-44-12-12-10-19-25-19-41v-138c-20-8-35-28-35-51 0-14 6-28 16-38 10-10 24-16 38-16h310c9-62 62-109 126-109h108c64 0 117 47 126 109h309c30 0 55 24 55 54 0 15-6 29-16 39z m-142 336c7 1 12-2 14-5 4-4 6-9 6-15l-14-120-346-51c55 57 177 166 340 191l0 0z m-792-20c-1 6 1 11 6 15 2 3 7 6 14 5 162-25 285-134 340-191l-347 51-13 120z m-61-152c5 3 10 5 15 4l449-66c2 0 4 0 5 0l450 66c5 1 10-1 14-4 4-4 7-9 7-14v-134h-383c-10 0-18-8-18-18v-73c0-10-8-18-18-18h-108c-10 0-19 8-19 18v73c0 10-8 18-18 18h-382v134c0 5 2 10 6 14l0 0z m956-221h-326c-10 0-18-8-18-18 0-50-41-91-91-91h-108c-50 0-91 41-91 91 0 10-8 18-18 18h-327c-4 0-9 2-13 6-3 3-5 8-5 12 0 10 8 18 18 18h381v-54c0-30 25-55 55-55h108c30 0 54 25 54 55v54h381c5 0 10-1 13-5 3-3 5-8 5-13 0-10-8-18-18-18z m-463 381c37 0 68 31 68 69 0 37-31 68-68 68-38 0-68-31-68-68 0-38 30-69 68-69z m0 100c17 0 32-14 32-31 0-18-15-32-32-32-18 0-32 14-32 32 0 17 14 31 32 31z m-359 121c57 0 103-46 103-102 0-10 8-19 18-19 10 0 18 9 18 19 0 56 46 102 102 102 10 0 18 8 18 18 0 10-8 18-18 18-56 0-102 46-102 103 0 10-8 18-18 18-10 0-18-8-18-18 0-57-46-103-103-103-10 0-18-8-18-18 0-10 8-18 18-18z m121 70c12-22 30-40 52-52-22-12-40-30-52-52-13 22-31 40-52 52 21 12 39 30 52 52z m288 26c56 0 102-46 102-102 0-10 8-18 18-18 10 0 19 8 19 18 0 56 45 102 102 102 10 0 18 8 18 18 0 10-8 18-18 18-57 0-102 46-102 103 0 10-9 18-19 18-10 0-18-8-18-18 0-57-46-103-102-103-10 0-18-8-18-18 0-10 8-18 18-18z m120 70c13-21 31-39 52-52-21-12-39-30-52-52-12 22-30 40-52 52 22 13 40 31 52 52z" horiz-adv-x="1100" />

<glyph glyph-name="top-right" unicode="&#xe80a;" d="M771 587l-662-662-109 109 662 662h-583v154h846v-846h-154v583z" horiz-adv-x="1000" />

<glyph glyph-name="right-arrow" unicode="&#xe80b;" d="M2 350c0-31 25-56 54-56h759l-297-281c-22-20-22-56-2-76 20-22 53-22 76-2l392 375c12 11 16 24 16 40 0 14-4 27-16 38l-392 375c-23 20-56 20-76-2-20-20-20-56 2-76l297-281h-759c-31 0-54-25-54-54z" horiz-adv-x="1000" />

<glyph glyph-name="left-arrow" unicode="&#xe80c;" d="M1151 312c0-44-33-77-74-77h-738l252-255c32-29 32-79 0-108-14-15-33-22-52-22-22 0-41 7-56 22l-384 384c-32 29-32 80 0 109l384 384c29 31 80 31 108 0 32-29 32-79 0-108l-252-252h738c41 0 74-36 74-77z" horiz-adv-x="1154" />

<glyph glyph-name="cart" unicode="&#xe80d;" d="M941 183v572h95v95h-143c-13 0-25-5-34-14-9-9-14-21-14-34v-571h-592l-95 381h592v95h-653c-7 0-14-1-21-5-6-3-12-7-17-13-4-6-7-12-9-20-1-7-1-14 1-21l119-476c2-10 8-20 17-26 8-7 18-10 29-10h677c13 0 25 5 34 14 9 9 14 21 14 33z m-96-333c26 0 50 10 68 28 18 18 28 42 28 67 0 25-10 50-28 68-18 17-42 28-68 28-25 0-49-11-67-28-18-18-28-43-28-68 0-25 10-49 28-67 18-18 42-28 67-28z m-571 0c25 0 50 10 67 28 18 18 28 42 28 67 0 25-10 50-28 68-17 17-42 28-67 28-25 0-49-11-67-28-18-18-28-43-28-68 0-25 10-49 28-67 18-18 42-28 67-28z" horiz-adv-x="1050" />

<glyph glyph-name="plus" unicode="&#xe80f;" d="M367-80v364h-359v146h359v361h146v-361h364v-146h-364v-364h-146z" horiz-adv-x="929" />

<glyph glyph-name="search" unicode="&#xe810;" d="M789 130l211-210-70-70-210 211c-79-63-176-97-277-97-244 0-443 198-443 443 0 245 199 443 443 443 245 0 443-198 443-443 0-101-34-198-97-277z m-99 37c63 64 98 150 98 240 0 190-155 345-345 345-190 0-344-155-344-345 0-190 154-345 344-345 90 0 176 35 240 98l7 7z" horiz-adv-x="1000" />

<glyph glyph-name="envelope" unicode="&#xe811;" d="M55 850h993c15 0 29-6 39-16 11-11 17-25 17-40v-888c0-15-6-29-17-40-10-10-24-16-39-16h-993c-14 0-28 6-39 16-10 11-16 25-16 40v888c0 15 6 29 16 40 11 10 25 16 39 16z m938-235l-437-395-446 396v-655h883v654z m-854 124l416-370 411 370h-827z" horiz-adv-x="1125" />

<glyph glyph-name="down-arrow" unicode="&#xe812;" d="M891-41c-31 0-58 11-79 31l-656 656c-45 41-45 113 0 154 41 45 113 45 154 0l581-577 577 577c41 45 113 45 154 0 45-41 45-113 0-154l-656-656c-21-20-48-31-75-31z" horiz-adv-x="1750" />

<glyph glyph-name="marker" unicode="&#xe813;" d="M408-8l225 225c44 45 75 101 87 163 12 61 6 125-18 183-24 58-65 108-117 143-52 35-114 53-177 53-62 0-124-18-176-53-52-35-93-85-117-143-24-58-30-122-18-183 12-62 42-118 87-163l224-225z m0-128l-288 289c-57 57-96 130-112 209-16 79-8 161 23 236 31 75 83 138 151 183 67 45 146 69 226 69 81 0 160-24 227-69 67-45 120-108 151-183 31-75 39-157 23-236-16-79-55-152-112-209l-289-289z m0 487c24 0 48 10 65 27 17 17 26 40 26 64 0 24-9 47-26 64-17 17-41 26-65 26-24 0-47-9-64-26-17-17-26-40-26-64 0-24 9-47 26-64 17-17 40-27 64-27z m0-91c-48 0-94 19-128 53-34 34-53 81-53 129 0 48 19 94 53 128 34 34 80 53 128 53 49 0 95-19 129-53 34-34 53-80 53-128 0-48-19-95-53-129-34-34-80-53-129-53z" horiz-adv-x="842" />

<glyph glyph-name="phone" unicode="&#xe814;" d="M1000 104v-196c0-29-22-53-52-55-24-2-44-3-59-3-491 0-889 398-889 889 0 15 1 35 3 59 2 30 26 52 55 52h197c14 0 26-11 27-25 1-13 3-23 4-31 11-78 34-153 67-222 5-11 2-24-8-31l-120-86c73-171 209-307 380-380l85 119c8 11 21 14 32 9 69-33 144-56 223-67 7-1 17-3 30-4 14-1 25-13 25-28z" horiz-adv-x="1000" />

<glyph glyph-name="play" unicode="&#xe815;" d="M54 819l750-438c17-10 23-32 13-49-3-5-7-10-13-13l-750-438c-17-10-39-4-49 13-3 6-5 12-5 18v876c0 20 16 36 36 36 6 0 12-2 18-5z" horiz-adv-x="857" />

<glyph glyph-name="quote" unicode="&#xe816;" d="M886 739c29 0 57-11 78-32 21-21 32-49 32-78 0-30-11-58-32-79-21-20-49-32-78-32-30 0-58 12-79 32-20 21-32 49-32 79 0 29 12 57 32 78 21 21 49 32 79 32z m98-309c-26-176-95-328-248-482-5-5-9-11-12-18-3-7-4-14-4-21 0-7 1-15 4-21 3-7 7-13 12-18 5-5 11-9 18-12 7-3 14-4 21-4 7 0 15 1 21 4 7 3 13 7 18 12 235 235 293 472 293 759 0 48-16 95-44 133-29 38-70 66-116 80-47 13-96 11-141-7-45-17-83-49-108-89-26-41-37-89-33-137 5-48 24-93 57-129 32-36 75-60 122-69 48-9 97-2 140 19z m-763 309c30 0 58-11 79-32 21-21 32-49 32-78 0-30-11-58-32-79-21-20-49-32-79-32-29 0-57 12-78 32-21 21-32 49-32 79 0 29 11 57 32 78 21 21 49 32 78 32z m98-309c-25-176-94-328-247-482-6-5-10-11-12-18-3-7-5-14-5-21 0-7 2-15 5-21 2-7 6-13 12-18 5-5 11-9 18-12 6-3 13-4 21-4 7 0 14 1 21 4 7 3 13 7 18 12 235 235 293 472 293 759 0 48-16 95-45 133-29 38-69 66-116 80-46 13-95 11-140-7-45-17-83-49-109-89-25-41-36-89-32-137 4-48 24-93 56-129 33-36 76-60 123-69 47-9 96-2 139 19z" horiz-adv-x="1114" />

<glyph glyph-name="light" unicode="&#xe817;" d="M810 472c-6 7-17 7-24 0-6-6-6-17 0-24l34-34c4-3 8-5 12-5 5 0 9 2 12 5 7 7 7 18 0 24l-34 34z m73 107h-51c-9 0-17-8-17-17 0-9 8-17 17-17h51c9 0 17 8 17 17 0 9-8 17-17 17z m-187-153c-9 0-17-7-17-17v-51c0-9 8-17 17-17 10 0 17 8 17 17v51c0 10-7 17-17 17z m105 293c7 6 7 17 0 24-63 63-155 80-234 50-17 34-52 57-91 57-57 0-102-46-102-102 0-8 1-16 3-24l-283-281c-3 0-6 0-9 0-47 0-85-38-85-85 0-46 38-84 85-84 3 0 6 0 9 0l231-230c-1-8-3-16-3-24 0-12 3-24 6-34h-39c-66 0-119-54-119-119 0-9 8-17 17-17h475c10 0 17 8 17 17 0 22-6 43-17 61v91c0 14-5 27-15 36-9 10-22 15-36 15-28 0-51-23-51-51v-34h-39c3 11 5 22 5 34 0 57-45 102-101 102-9 0-17-1-24-3l-232 231c1 3 1 6 1 9 0 4 0 7-1 10l259 258c-12-68 8-142 61-195 4-3 8-5 12-5 5 0 9 2 13 5l66 66c19-13 42-20 66-20 65 0 118 53 118 119 0 24-7 47-20 66l57 57z m-325 97c26 0 49-15 60-37-17-10-32-22-47-36-17-17-30-36-41-57-17 8-30 22-36 39-3 8-4 15-4 23 0 38 30 68 68 68z m-442-458c0 28 23 51 51 51 28 0 51-23 51-51 0-28-23-50-51-50-28 0-51 22-51 50z m577-322c5 0 9-1 12-5 4-3 5-7 5-12v-55c-10 7-22 13-34 16v39c0 10 8 17 17 17z m-51-85c5 0 10 0 15-1 17-3 33-11 45-24 5-4 8-8 11-13 6-9 10-19 13-30h-438c7 39 42 68 83 68h60c18-21 46-34 76-34 30 0 57 13 75 34h60v0z m-67 68c0-37-31-68-68-68-38 0-68 31-68 68 0 38 30 68 68 68 37 0 68-30 68-68z m-126 84c-10-7-19-16-27-26l-210 210c11 6 20 16 27 26l210-210z m-237 327l261 261c7-10 17-20 27-27l-261-261c-7 11-16 20-27 27z m372 38c-61 73-57 182 11 251 37 36 85 54 132 54 43 0 85-14 120-43l-263-262z m228 128c0-47-38-85-85-85-14 0-29 4-41 11l115 115c7-12 11-27 11-41z" horiz-adv-x="900" />

<glyph glyph-name="idea" unicode="&#xe818;" d="M986 588h0l0 0-65 9c-9 1-15 9-14 19 1 4 3 8 7 10l52 40c7 5 9 16 3 23l-59 80c-6 7-16 8-24 3l-52-39c-7-6-17-4-23 3-3 3-4 8-3 12l9 65c1 9-5 17-14 19 0 0 0 0 0 0l-99 14c-9 1-17-5-18-14v0l-10-65c-1-9-9-15-18-14-5 1-9 3-11 6l-39 53c-6 7-16 8-24 3l-50-37c-22 2-45 2-67 0-148-17-264-135-279-283 0-5 0-10 0-14h-5c-8 0-15-6-17-14l-11-54-46 32c-7 4-16 3-21-2l-50-50c-6-6-6-15-2-21l32-46-55-12c-8-1-13-8-13-16v-66c0-8 6-15 13-16l55-12-32-46c-4-6-3-15 2-21l50-50c6-5 15-6 21-2l46 32 11-55c2-7 9-13 17-13h66c8 0 15 6 16 13l12 55 46-32c6-4 15-3 21 2l26 26v-47c0-24 12-46 33-57v-93c0-36 30-66 66-66h67c36 0 66 30 66 66v93c20 11 33 33 33 57v66c1 27 15 53 39 67 13 9 26 19 39 30l-23 25c-10-10-22-19-35-27-32-21-53-57-53-95v-66c0-19-15-33-33-33h-133c-18 0-33 14-33 33v67c-1 38-20 73-53 94-131 82-171 256-88 387 51 82 140 132 237 132 0-1-1-1-1-2 0-4 1-9 3-12l39-52c5-6 5-13 1-19-3-5-10-9-16-8l-65 10c-9 1-17-5-19-14 0 0 0 0 0 0l-14-99c-1-9 5-18 14-19 0 0 0 0 0 0l65-9c9-1 15-10 14-19 0-4-3-8-6-11l-52-39c-8-5-9-16-4-23l60-80c5-7 16-9 23-3l52 39c8 5 18 4 24-3 2-4 3-8 3-13l-9-64c-2-9 5-18 14-19h0l98-14c1 0 2 0 3 0 8 0 15 6 16 14l9 65c1 9 10 15 19 14 4-1 8-3 11-7l39-52c6-7 16-9 23-3l80 59c7 6 9 16 3 24l-39 52c-4 5-4 13-1 18 3 6 10 9 17 8l64-9c9-1 18 5 19 14v0l14 99c1 9-5 17-14 19z m-550-589h133v-33h-133v33z m0-66h133v-17c0-18-15-33-33-33h-67c-18 0-33 15-33 33v17z m-132 286c9-7 18-14 28-20 16-10 28-25 34-43l-36-35-34 23c-16 11-36 7-47-8-2-4-4-8-5-12l-8-42h-40l-9 42c-3 18-21 29-39 25-4 0-8-2-12-5l-34-23-31 30 24 34c11 15 7 36-8 46-4 3-8 5-12 6l-42 8v40l42 8c18 4 29 22 25 40-1 4-2 8-5 12l-24 34 31 30 34-23c15-11 36-7 46 8 3 4 5 8 5 12l3 14c3-19 7-38 13-56-54-7-93-56-87-111 7-55 56-94 111-87 33 4 62 24 77 53z m-26 24c-12-35-50-53-85-40-34 12-52 50-40 85 10 26 35 43 63 43 0 0 0 0 0 0 16-33 37-63 62-88z m677 248l-48 7c-27 4-52-15-56-42-2-13 2-26 9-37l30-39-53-40-30 39c-16 22-47 27-69 10-11-8-18-20-20-33l-7-48-65 10 7 48c4 27-15 52-43 56-13 2-26-2-37-9l-38-30-40 54 39 29c22 16 26 47 10 69-8 11-20 18-33 20l-48 7 9 65 48-6c27-4 53 15 57 42 1 13-2 26-10 37l-29 39 53 39 29-38c17-22 48-27 70-10 10 8 17 19 19 32l7 49 66-10-7-48c-4-27 15-52 42-56 13-2 27 1 37 9l39 29 40-53-39-29c-22-16-26-48-10-70 8-10 20-17 33-19l48-7-10-66z m-241 201c-74 0-133-59-133-133 0-73 59-132 133-132 73 0 133 59 133 132-1 74-60 133-133 133z m0-232c-55 0-100 44-100 99 0 55 45 100 100 100 55 0 99-45 99-100 0-55-44-99-99-99z m-195-344h-33v-50h33v50z m-89 163c-103 40-153 155-113 258 15 39 43 73 79 96l-18 28c-108-69-141-212-72-321 26-42 65-74 112-92 41-16 68-55 68-99h33c0 57-35 109-89 130z m504-47h-116v-33h116v33z m-122-87l-21-26 99-83 21 26-99 83z m-61-46h-33v-116h33v116z m-601 497l-133-33 8-32 133 33-8 32z m-86 164l-19-27 116-83 19 27-116 83z m155 90l-32-8 34-133 32 8-34 133z" horiz-adv-x="1018" />

<glyph glyph-name="bright" unicode="&#xe819;" d="M272 486c-6-6-6-16 0-22l63-62c3-4 7-5 11-5 4 0 8 1 11 5 6 6 6 15 0 22l-63 62c-6 6-16 6-22 0z m274 0c-6 6-16 6-22 0l-63-62c-6-7-6-16 0-22 3-4 7-5 11-5 4 0 8 1 11 5l63 62c6 6 6 16 0 22z m-137 286c9 0 16 7 16 16v46c0 9-7 16-16 16-9 0-16-7-16-16v-46c0-9 7-16 16-16z m-393-344h47c9 0 16 7 16 16 0 8-7 15-16 15h-47c-9 0-16-7-16-15 0-9 7-16 16-16z m91 200c3-3 7-5 11-5 4 0 8 2 11 5 6 6 6 16 0 22l-39 39c-6 6-16 6-22 0-7-6-7-16 0-22l39-39z m-25-375l39 39c6 6 6 16 0 22-6 6-16 6-22 0l-39-39c-6-6-6-16 0-22 3-3 7-5 11-5 4 0 8 2 11 5z m171-28c15-10 27-27 32-46l10-36c-16-8-27-24-27-43v-78c0-22 15-41 36-46l19-38c5-10 14-17 23-21v-20c0-26 21-47 47-47h32c26 0 47 21 47 47v20c10 4 18 11 23 21l19 38c21 5 37 24 37 46v78c0 19-12 35-28 43l11 40c5 17 16 32 32 43 89 58 136 160 125 266-15 128-119 232-249 247-82 9-161-16-222-70-60-53-94-130-94-210 0-94 47-182 127-234z m200-281h-87c-6 0-12 3-14 8l-12 23h138l-11-23c-3-5-8-8-14-8z m-28-63h-32c-8 0-15 7-15 16v15h63v-15c0-9-7-16-16-16z m79 125h-189c-9 0-16 7-16 16h142c8 0 15 7 15 16 0 8-7 15-15 15h-142v16h47c9 0 16 7 16 15 0 9-7 16-16 16h-47c0 9 7 16 16 16h189c8 0 15-7 15-16h-110c-9 0-16-7-16-16 0-8 7-15 16-15h110v-16h-15c-9 0-16-7-16-15 0-9 7-16 16-16h15c0-9-7-16-15-16z m-108 141l13 93 13-93h-26z m-155 499c55 48 125 70 197 62 116-13 208-105 221-220 11-94-31-184-110-236-22-15-38-37-45-60l-12-45h-38l-27 188c55 3 98 21 127 53 51 56 45 132 45 135-1 8-8 15-16 15-63 0-112-19-145-54-13-15-22-30-29-45-6 15-15 30-28 45-33 35-82 54-145 54-8 0-15-7-16-15 0-3-6-79 45-135 29-32 72-50 126-53l-27-188h-37l-11 40c-8 27-24 50-46 64-70 46-113 124-113 208 0 72 31 139 84 187z m184-280c1 22 7 64 37 96 24 27 59 41 105 44-1-22-6-64-36-97-24-26-60-40-106-43z m-31 0c-46 3-82 17-106 43-30 32-35 75-36 97 46-3 81-17 105-43 30-32 36-75 37-97z m37 280c18-2 35-7 51-13 2-1 4-2 6-2 6 0 12 4 15 10 3 8-1 17-9 20-19 8-39 13-59 16-9 1-16-5-17-14-1-9 5-16 13-17z m114-57c4-3 8-5 12-5 4 0 8 2 11 5 6 6 6 16 0 22-6 6-12 11-18 17-7 5-17 4-22-2-6-7-5-17 2-22 5-5 11-10 15-15z m195-145c0-9 7-16 15-16h47c9 0 16 7 16 16 0 8-7 15-16 15h-47c-8 0-15-7-15-15z m-40 179c4 0 8 2 11 5l40 39c6 6 6 16 0 22-6 6-16 6-23 0l-39-39c-6-6-6-16 0-22 3-3 7-5 11-5z m47-375c4 0 8 2 12 5 6 6 6 16 0 22l-40 39c-6 6-16 6-22 0-6-6-6-16 0-22l39-39c3-3 7-5 11-5z" horiz-adv-x="820" />

<glyph glyph-name="right-arrow-2" unicode="&#xe81a;" d="M612 787l409-390c11-11 18-25 18-41 0-14-7-28-18-40l-409-390c-21-21-58-21-79 3-20 21-20 58 3 79l308 292h-788c-33 0-56 25-56 56 0 32 23 55 56 55h788l-308 295c-23 21-23 58-3 79 21 23 56 23 79 2z" horiz-adv-x="1063" />

<glyph glyph-name="stone" unicode="&#xe81b;" d="M850 417c-24 0-48-6-70-18-22-11-40-27-54-48-64 7-159 40-159 182v117h24c8 0 15 2 22 7 7 4 12 10 16 17 4 8 5 16 4 24-1 8-4 16-9 23l-91 113c-4 5-9 9-14 12-6 3-13 4-19 4-6 0-13-1-18-4-6-3-11-7-15-12l-91-113c-5-7-8-15-9-23-1-8 1-16 4-24 4-7 9-13 16-17 7-5 15-7 23-7h23v-117c0-142-95-175-159-182-19 28-47 49-80 59-32 10-67 9-98-3-32-13-59-35-76-65-17-29-23-63-18-97 5-33 21-64 45-87 25-24 57-38 91-41 34-2 67 6 95 25 29 19 50 47 60 79 50 8 98 26 140 53v-140c-30-15-54-40-69-70-14-31-18-65-10-98 8-33 26-63 53-84 26-21 59-32 93-32 34 0 67 11 93 32 27 21 45 51 53 84 8 33 4 67-10 98-15 30-39 55-69 70v140c42-27 90-45 140-53 9-26 24-50 45-68 21-18 47-30 74-34 27-5 55-1 81 9 26 11 48 28 64 50 17 23 26 49 29 77 2 27-4 55-16 80-13 25-32 45-56 60-23 14-50 22-78 22z m-700-267c-23 0-46 7-65 20-19 13-34 31-43 52-9 22-11 45-6 68 4 22 15 43 32 59 16 17 37 28 59 32 23 5 46 2 68-6 21-9 39-24 52-43 13-20 20-42 20-65 0-31-13-61-34-83-22-21-52-34-83-34z m467-150c0-23-7-45-20-65-13-19-31-34-52-43-22-8-45-11-68-6-22 4-43 15-59 32-17 16-28 37-32 59-5 23-3 47 6 68 9 21 24 39 43 52 19 13 42 20 65 20 31 0 61-12 83-34 21-22 34-52 34-83z m-56 320c-3 2-6 4-9 4-3 0-6 0-9-2-3-1-5-3-7-6-2-2-3-5-3-9v-161c-22 6-44 6-66 0v161c0 4-1 7-3 9-2 3-4 5-7 6-3 2-6 2-9 2-3-1-6-2-9-4-40-32-88-54-139-64 0 4 0 7 0 11 0 18-3 36-10 53 62 10 177 50 177 213v134c0 4-2 8-5 12-3 3-8 4-12 4h-40c-2 0-4 1-5 2-2 1-3 2-4 4-1 2-1 4-1 6 0 1 1 3 2 5l91 113c1 1 2 2 3 3 1 0 3 1 4 1 2 0 3-1 4-1 1-1 2-2 3-3l91-113c1-2 2-4 2-6 0-1 0-3-1-5-1-2-2-3-3-4-2-1-4-2-5-2h-41c-4 0-9-1-12-4-3-4-5-8-5-12v-134c0-163 116-203 177-213-7-17-10-35-10-53 0-4 0-7 1-11-52 10-100 32-140 64z m289-170c-23 0-46 7-65 20-19 13-34 31-43 52-9 22-11 45-6 68 4 22 15 43 32 59 16 17 37 28 59 32 23 5 46 2 68-6 21-9 39-24 52-43 13-20 20-42 20-65 0-31-13-61-35-83-21-21-51-34-82-34z" horiz-adv-x="1000" />

<glyph glyph-name="badge" unicode="&#xe81c;" d="M787-51l-113 297c11 7 21 16 29 26 8 11 14 24 16 38 3 14 2 28-1 42-3 11-3 24 1 35 4 12 11 22 21 30 11 9 20 20 26 33 6 13 9 27 9 41 0 14-3 28-9 41-7 12-15 24-26 33-10 7-17 18-21 29-4 12-4 24-1 36 3 14 4 28 1 41-2 14-8 27-16 38-9 12-20 22-32 28-13 7-27 11-41 12-13 1-25 5-35 13-10 7-18 17-23 28-5 13-13 25-24 34-10 10-22 17-36 21-13 5-28 6-42 4-14-1-28-6-40-14-11-6-23-10-36-10-12 0-24 4-35 10-12 8-26 13-40 14-15 2-29 1-43-4-13-4-26-11-36-21-10-9-18-21-24-34-5-12-13-21-23-29-10-7-22-11-34-12-14-1-28-5-41-12-13-7-24-16-32-28-8-11-14-24-17-38-2-13-2-28 2-41 3-12 2-24-2-36-4-12-11-22-20-30-11-9-20-20-26-33-6-12-9-26-9-40 0-15 3-29 9-41 6-13 15-24 26-33 9-8 16-18 20-30 4-11 5-24 2-36-4-13-4-27-2-41 3-14 9-27 17-38 8-10 17-19 29-26l-114-297c-1-3-1-6-1-9 1-3 2-5 5-8 2-2 4-3 7-4 3-1 6 0 9 1l124 44 63-115c1-2 3-4 5-6 3-1 6-2 8-2 1 0 1 0 2 0 2 0 5 1 8 3 2 2 4 4 5 7l106 278c6 2 12 5 17 8 11 6 23 10 35 10 13 0 25-4 36-10l0 0c5-3 10-6 16-8l106-278c2-3 3-5 6-7 2-2 5-3 8-3 0 0 1 0 1 0 3 0 6 1 8 2 3 2 5 4 6 6l63 115 123-44c3-1 6-1 9-1 3 1 6 2 8 4 2 3 4 5 4 8 1 3 1 6-1 9z m-568-46l-53 97c-2 3-5 6-8 7-4 1-8 1-11 0l-104-37 101 264c5-1 10-2 15-2 12-1 24-5 34-12 10-7 18-17 23-29 6-13 14-24 24-34 10-9 23-17 36-21 10-3 20-5 30-5l-87-228z m123 270c-8-6-17-9-27-10-10-1-20 0-29 3-9 3-17 8-25 14-7 7-12 15-16 23-7 17-18 32-33 42-15 11-33 17-51 18-10 1-19 4-28 8-8 5-16 12-22 19-5 8-9 17-11 26-2 9-1 19 1 28 5 17 4 36-2 53-6 17-16 33-30 44-8 6-14 14-18 22-4 9-6 18-6 28 0 9 2 19 6 27 5 9 11 16 18 22 14 12 24 27 30 44 6 18 6 36 2 54-2 9-3 18-1 27 2 10 6 18 11 26 6 8 14 14 22 19 9 5 18 8 28 8 18 1 36 8 51 18 15 11 26 25 33 42 4 9 9 17 16 23 8 7 16 12 25 14 9 3 19 4 29 3 10-1 19-4 27-9 16-10 34-15 52-15 19 0 37 5 52 15 9 5 18 8 28 9 9 1 19 0 29-3 9-2 17-7 24-14 7-6 13-14 16-23 7-17 19-31 34-42 15-10 32-17 51-18 9-1 19-3 27-8 9-5 16-11 22-19 6-8 10-16 11-26 2-9 2-18-1-27-4-18-3-37 2-54 6-17 17-32 31-44 7-6 13-13 17-22 4-9 6-18 6-27 0-10-2-19-6-28-4-9-10-16-17-22-14-12-25-27-31-44-5-17-6-36-2-53 3-9 3-19 1-28-2-9-5-18-11-26-6-8-13-14-22-19-8-4-18-7-28-8-18-1-35-7-50-18-15-10-27-25-34-42-3-8-9-16-16-23-7-6-15-11-24-14-10-3-20-4-29-3-10 1-19 4-28 10-15 9-33 14-52 14-18 0-36-5-52-14z m300-166c-4 1-8 1-11 0-4-1-7-4-8-7l-53-97-88 228c10 0 21 2 30 5 14 4 26 12 37 21 10 10 18 21 23 34 5 12 13 22 23 29 10 7 22 11 35 12 5 0 10 1 15 2l101-264-104 37z m-12 484c0 46-14 91-40 130-26 38-62 68-106 86-43 18-90 23-136 14-45-9-87-32-120-65-33-32-56-74-65-120-9-45-4-92 14-135 17-43 48-79 86-105 39-26 85-40 131-40 63 0 123 25 167 69 44 44 69 104 69 166z m-236-203c-40 0-80 11-113 34-34 22-60 54-75 91-16 37-20 78-12 117 8 40 27 76 56 104 28 29 65 48 104 56 40 8 81 4 118-12 38-15 70-41 92-74 23-34 35-73 35-113-1-54-22-106-60-144-39-38-91-59-145-59z m125 254l-76 12-35 69c-1 2-3 4-6 5-2 2-5 3-8 3-3 0-5-1-8-3-2-1-4-3-6-5l-34-69-77-12c-3 0-5-1-8-3-2-2-3-4-4-7-1-3-1-6-1-9 1-3 2-5 5-7l55-54-13-76c-1-3 0-6 1-8 1-3 3-5 5-7 3-2 5-3 8-3 3 0 6 0 9 2l68 36 69-36c2-2 5-2 8-2 3 0 6 1 8 3 3 2 5 4 6 7 1 2 1 5 1 8l-13 76 55 54c2 2 4 4 4 7 1 3 1 6 0 9-1 3-3 5-5 7-2 2-5 3-8 3z m-74-63c-2-2-4-4-4-7-1-2-1-5-1-7l9-53-47 25c-3 1-5 2-8 2-2 0-5-1-7-2l-48-25 9 53c1 2 1 5 0 7-1 3-2 5-4 7l-39 37 54 8c2 0 5 1 7 3 2 1 3 3 4 5l24 48 24-48c1-2 3-4 5-5 2-2 4-3 7-3l53-8-38-37z" horiz-adv-x="800" />

<glyph glyph-name="play-2" unicode="&#xe81d;" d="M759 323l-707-467c-15-11-36-7-46 9-4 5-6 11-6 18v934c0 18 15 33 33 33 7 0 13-2 19-5l707-467c16-11 20-31 10-46-3-4-6-7-10-9z" horiz-adv-x="774" />

<glyph glyph-name="unity" unicode="&#xe81e;" d="M996 119l-99 99c21 30 35 62 47 90 8 17 15 33 22 45l5 10 4-4c3-3 7-5 10-5 4 0 8 2 11 5 5 5 5 15 0 20l-10 10 6 10c10 17 9 31 6 39-3 11-11 20-23 27-7 4-15 7-23 7 0 6-1 10-2 14-3 11-11 20-23 27-8 5-15 7-23 7 0 6-1 10-2 14-3 11-11 20-23 27-8 5-15 7-23 7 0 17-8 32-25 41-11 7-23 9-34 6-9-2-21-7-31-24 0 0 0-1-1-1l-44 45c-5 11-23 51-57 85-37 37-84 58-122 74-17 8-33 15-45 22l-9 5 4 4c5 6 5 15 0 21-6 5-15 5-21 0l-10-10-10 6c-17 10-31 9-39 6-11-3-20-11-27-23-4-7-7-15-7-23-6 0-10-1-14-2-11-3-20-11-27-23-5-7-7-15-7-23-17 1-31-8-41-25-4-7-7-15-7-23-17 1-31-8-41-25-7-11-9-23-6-34 2-9 8-21 24-31 0 0 1 0 1-1l-45-44c-11-5-51-22-85-57-3-3-6-6-9-9l-96 97c-6 5-15 5-21 0-5-6-5-15 0-21l99-99c-9-13-18-28-27-45-3-7 0-16 7-19 2-1 4-2 7-2 5 0 10 3 13 8 14 30 30 52 47 70 35 34 78 50 78 50 2 1 4 2 6 4l51 51c15-10 38-25 73-49 12-8 22-16 31-26l-40-40c-5-5-5-13-1-19 96-128 93-146 70-185l-21-37c-6-4-12-9-19-14l-28 28c10 7 22 13 33 17 8 3 12 11 9 19-3 7-11 11-19 8-40-14-73-41-97-76-40-60-63-94-67-101-4-6-8-10-12-11-5-1-10 1-14 3-3 2-7 6-9 11-1 4 0 9 3 15l45 78c4 7 2 16-5 20-7 4-16 2-20-5l-36-63c-7-12-15-14-26-8-3 2-7 6-9 11-1 4 0 9 3 15l48 82c4 7 1 16-6 20-7 4-16 2-20-5l-38-67c-7-12-15-14-26-8-10 7-12 15-6 26l48 84c5 7 2 16-5 20-7 4-16 1-20-6l-39-68c-7-12-15-14-26-8-11 7-12 15-6 26l27 46c6 12 12 25 18 38 3 7 0 16-7 19-8 3-16 0-20-7-5-12-11-25-17-35l-5-9-4 4c-6 5-15 5-21 0-5-6-5-15 0-21l10-10-6-10c-15-26-8-52 17-66 8-4 16-7 23-7 0-17 8-31 25-41 8-5 16-7 23-7 0-6 1-10 2-14 3-11 11-20 23-27 8-5 16-7 23-7 0-6 1-10 2-14 3-11 11-20 23-27 8-5 17-7 25-7 3 0 6 0 10 1 8 2 21 8 30 24 0 0 0 1 1 1l45-45c4-11 22-51 56-85 3-3 6-6 9-9l-96-96c-6-6-6-15 0-21 2-3 6-4 10-4 4 0 7 1 10 4l99 99c30-21 62-35 90-47 17-8 33-15 45-22l9-5-3-4c-6-6-6-15 0-21 2-3 6-4 10-4 4 0 7 1 10 4l10 10 10-6c10-6 19-8 27-8 5 0 9 1 12 2 11 3 20 11 27 23 5 7 7 15 7 23 6 0 10 1 14 2 11 3 20 11 27 23 5 7 7 15 7 23 6 0 11 1 14 2 11 3 20 11 27 23 5 7 7 15 7 23 17-1 32 8 41 25 7 11 9 23 6 34-2 9-7 21-24 31-4 2-22 14-99 66-12 8-22 17-31 27l40 39c5 5 5 14 1 19-41 56-63 88-74 113-3 7-12 11-20 7-7-3-10-12-7-19 5-10 11-21 19-34-35 15-64 11-118-22 15 35 12 64-22 119 13-6 25-9 38-9 22 0 46 9 80 30-3-7-5-13-6-18-2-8 3-16 11-18 1 0 2-1 3-1 7 0 13 5 14 12 2 7 6 15 12 26l21 36c6 4 12 9 19 14l28-28c-10-7-21-12-33-17-8-3-12-11-9-19 3-7 11-11 19-8 40 15 74 41 97 76 41 60 63 94 67 101 4 6 8 10 12 11 5 1 10-1 14-3 11-7 12-14 6-26l-9-15c0 0-36-63-36-63-4-7-2-16 5-20 7-4 16-1 20 6l36 62c7 12 15 14 26 8 3-2 8-6 9-10 1-5 0-10-3-16l-48-82c-4-7-1-16 6-20 7-4 16-2 20 5l38 67c7 12 15 14 26 8 3-2 8-6 9-11 1-4 0-9-3-15l-48-84c-4-7-2-16 5-20 7-4 16-1 20 6l39 68c4 6 8 10 12 11 5 1 10-1 14-3 3-2 8-6 9-11 1-4 0-9-3-15l-27-46c-8-14-15-31-23-48-16-38-34-81-67-113-35-35-78-51-78-51-2-1-4-2-6-4l-16-15c-5-6-5-15 0-21 3-3 7-4 11-4 4 0 7 1 10 4l14 14c11 4 51 22 85 56 3 3 6 6 9 9l96-96c3-3 7-5 10-5 4 0 8 2 11 5 5 5 5 15 0 20z m-425 149l36-21c4-6 9-12 14-19l-28-28c-7 10-12 22-17 33-3 8-11 12-19 9-7-3-11-11-8-19 15-40 41-74 77-97 59-41 93-63 100-67 6-4 10-8 11-12 1-5-1-10-3-14-6-10-14-12-26-6l-78 45c-7 4-16 2-20-5-4-7-1-16 6-20l62-36c12-7 14-15 8-26-2-3-6-8-10-9-5-1-10 0-16 3l-82 48c-7 4-16 1-20-6-4-7-2-16 5-20l67-38c12-7 14-15 8-26-2-3-6-8-10-9-5-1-10 0-16 3l-84 48c-7 4-15 2-20-5-4-7-1-16 6-20l68-39c6-4 10-8 11-12 1-5-1-10-3-14-2-3-6-8-11-9-4-2-9 0-15 3l-46 27c-14 8-31 15-48 22-38 17-80 35-113 68-35 35-51 78-51 78-1 2-2 4-4 6l-51 51c10 15 25 38 49 73 8 12 17 22 27 31l39-40c3-2 7-4 11-4 3 0 6 1 8 3 128 95 146 93 186 70z m129 224c-8-12-16-22-26-31l-40 40c-5 5-13 5-19 1-128-95-146-93-185-70l-37 21c-4 6-9 12-14 19l28 28c7-10 13-21 17-33 2-6 8-10 14-10 1 0 3 0 5 1 7 3 11 11 8 19-14 40-41 74-76 97-60 41-94 63-101 67-6 4-10 8-11 12-1 5 1 10 3 14 7 11 15 12 26 6l15-9c0 0 63-36 63-36 7-4 16-2 20 5 4 7 2 16-5 20l-63 36c-6 4-10 8-11 12-1 5 1 10 3 14 7 11 15 12 26 6l82-48c7-4 16-1 20 6 4 7 2 16-5 20l-67 38c-12 7-14 15-8 26 2 3 6 8 11 9 4 1 9 0 15-3l84-48c7-4 16-2 20 5 4 7 1 16-6 20l-68 39c-12 7-14 15-8 26 2 3 6 8 11 9 4 2 9 0 15-3l46-27c14-8 31-15 48-22 38-17 81-35 114-68 34-35 50-78 50-78 1-2 2-4 4-6l51-51c-10-15-25-38-49-73z m-27 260c4 0 7 2 10 5l69 68c5 6 5 15 0 21-6 5-15 5-21 0l-69-69c-5-5-5-15 0-20 3-3 7-5 11-5z" horiz-adv-x="1000" />

<glyph glyph-name="long-left" unicode="&#xe81f;" d="M92-65h3816c45 0 82 37 82 82 0 46-37 82-82 82h-3617l498 498c32 32 32 84 0 116-33 32-85 32-117 0l-638-638c-23-23-30-59-18-89 13-31 43-51 76-51z" horiz-adv-x="4000" />

<glyph glyph-name="rocket-2" unicode="&#xe820;" d="M651 442c-48 0-87 39-87 88 0 49 39 88 87 88 48 0 87-39 87-88 0-49-39-88-87-88z m0 145c-31 0-56-26-56-57 0-31 25-57 56-57 31 0 56 26 56 57 0 31-25 57-56 57z m315 245c0 8-7 15-14 15-117 9-334 3-469-141 0 0 0 0 0 0-18-19-35-42-51-65-196-72-283-202-303-269-3-10 4-20 14-21l143-11c-12-31-23-63-32-94-2-6-1-12 4-16l95-96c4-4 10-6 16-4 31 9 63 20 95 32l11-144c1-10 11-17 20-15 60 19 193 107 267 306 23 16 45 33 65 52 140 134 147 353 139 471 8-118 0 8 0 0z m-31-16c4-61 2-144-19-227l-207 209c83 21 166 22 226 18z m-768-434c25 57 97 151 237 213-23-41-44-84-62-121-16-34-31-68-44-102l-131 10z m338-340l-10 132c34 14 67 29 100 45 38 18 80 38 121 62-63-142-156-214-211-239z m300 342c-60-57-147-99-223-136-70-34-142-62-213-85l-82 83c22 72 50 144 84 214 35 73 78 163 135 224 48 51 107 83 168 103l232-233c-19-62-51-122-101-170z m-780-524c-13 0-21 17-11 27l217 228c15 15 37-8 23-23l-217-228c-3-3-7-4-12-4z m153-10c-13 0-20 17-11 27l140 160c14 16 38-5 24-21l-141-161c-3-3-7-5-12-5z m-162 154c-14 0-21 17-12 27l141 160c13 16 37-6 24-21l-141-161c-3-3-8-5-12-5z" horiz-adv-x="982" />

<glyph glyph-name="idea-2" unicode="&#xe821;" d="M810 538l-106 107c-2 2-4 3-7 4-3 1-7 1-10 0-3-1-5-3-7-6-2-2-3-5-4-8-2-12-7-24-15-33-8-10-18-17-30-21-11-4-24-4-36-1-12 2-23 9-32 17-9 9-15 20-18 32-3 12-2 25 2 37 4 11 11 22 20 30 10 8 21 13 34 15 3 0 6 1 8 3 2 2 4 5 5 8 1 3 1 6 1 9-1 3-3 6-5 8l-106 106c-3 3-7 5-12 5-4 0-8-2-11-5l-93-92c-4 17-13 33-25 45-13 12-28 21-45 26-17 4-35 4-52 0-17-5-32-14-45-26-12-12-21-28-26-45-4-17-4-35 0-52 5-17 14-32 26-45 13-12 28-21 45-26l-92-92c-3-3-5-7-5-11 0-5 2-9 5-12l92-92c-20-6-38-17-51-34-14-16-21-36-23-57-1-21 4-41 15-59 11-18 28-32 47-40l-39-112c-5-12-8-24-7-37 0-13 4-25 10-37l58-138c1-1 1-1 1-2 4-7 6-16 6-24v-16c0-5 2-9 5-12 3-3 8-5 12-5 4 0 9 2 12 5 3 3 5 7 5 12v16c0 14-4 27-10 39l-59 139c0 1 0 1-1 2-3 7-6 14-6 22 0 8 2 16 5 24l41 117c1 0 3 0 5 0 22 0 43 7 61 20 17 14 30 33 35 54l29-28v-172c0-4 1-8 5-11 3-4 7-5 11-5 5 0 9 1 12 5 3 3 5 7 5 11v234c0 13 5 26 15 35 9 10 22 15 35 15 13 0 26-5 35-15 10-9 15-22 15-35v-202c0-23 6-46 16-67l6-13c8-16 12-34 12-52 0-18-4-36-12-52l-17-33c-3-7-5-15-5-23v-25c0-5 2-9 5-12 3-3 7-5 12-5 4 0 8 2 12 5 3 3 4 7 4 12v25c0 3 1 5 2 8l17 33c10 21 15 44 15 67 0 24-5 47-15 67l-6 13c-6 12-10 25-12 38 11-11 24-20 38-25 14-6 29-9 45-9 13 0 26 5 35 14 9 10 15 22 15 36v95c21 5 40 18 54 35 14 17 21 39 22 61 0 22-7 44-21 62-13 17-32 30-53 36l91 92c4 3 5 7 5 12 0 4-1 8-5 11z m-143-421c-22 0-44 9-59 25-16 15-25 36-25 58v87l13 13c5-20 17-37 32-51 16-13 35-21 55-23v-92c0-5-1-9-4-12-4-3-8-5-12-5z m2 303c-2-2-4-5-5-9 0-3 0-7 2-10 1-3 4-6 7-7 3-2 7-3 10-2 14 2 28-1 41-7 12-7 22-17 28-29 7-13 9-27 6-41-2-14-8-27-18-36-10-10-23-17-37-19-13-2-28 0-40 6-13 6-23 16-29 29-7 12-9 26-7 40 0 4 0 7-2 10-2 3-4 6-7 8-4 1-7 2-11 1-3 0-6-2-9-5l-15-15c0 11-2 22-6 32-4 10-10 20-18 27-8 8-17 14-27 18-10 5-21 7-32 7-11 0-22-3-32-7-10-4-19-10-27-18-16-16-24-37-24-59v-15l-31 30c-2 3-6 5-9 5-3 1-7 0-10-1-3-2-6-4-7-8-2-3-3-6-2-10 2-14-1-28-7-40-7-13-17-23-29-29-13-6-27-8-41-6-14 2-26 9-36 19-10 10-17 22-19 36-2 14 0 28 6 41 6 12 16 22 29 29 12 7 26 9 40 7 4-1 7 0 10 2 3 1 6 4 8 7 1 3 2 7 1 10 0 4-2 7-5 9l-106 107 106 106c3 2 5 5 5 9 1 3 0 7-1 10-2 3-4 6-8 7-3 2-6 3-10 2-14-2-28 1-40 7-12 7-22 17-29 29-6 13-8 27-6 41 2 14 9 26 19 36 13 12 29 19 47 19 18 0 34-7 47-19 7-7 13-16 16-26 3-10 4-20 3-30-1-4 0-7 2-10 1-4 4-6 7-8 3-1 7-2 10-1 4 0 7 2 9 5l106 106 75-75c-14-7-27-17-37-30-9-13-16-28-18-43-3-16-2-32 3-48 5-15 13-29 24-40 12-12 26-20 41-25 15-5 31-6 47-3 16 3 31 9 43 19 13 9 24 22 30 36l75-74-106-107z m314 81h-100c-4 0-8 2-11 5-4 3-5 7-5 12 0 4 1 8 5 11 3 4 7 5 11 5h100c5 0 9-1 12-5 3-3 5-7 5-11 0-5-2-9-5-12-3-3-7-5-12-5z m-118 192c-3 0-7 1-10 3-3 2-5 6-6 9-1 4 0 7 1 11 1 3 4 6 7 8l87 50c4 2 8 3 12 2 5-2 8-4 10-8 3-4 3-9 2-13-1-4-4-8-8-10l-86-50c-3-1-6-2-9-2z m87-434c-3 0-6 1-8 2l-87 50c-2 1-4 3-5 4-1 2-2 4-3 6 0 2-1 5 0 7 0 2 1 4 2 6 1 2 2 4 4 5 2 1 4 2 6 3 2 0 4 1 6 0 3 0 5-1 7-2l86-50c3-2 6-5 7-8 2-3 2-7 1-11-1-3-3-6-6-9-3-2-6-3-10-3z m-835 242h-100c-5 0-9 2-12 5-3 3-5 7-5 12 0 4 2 8 5 11 3 4 7 5 12 5h100c4 0 8-1 12-5 3-3 4-7 4-11 0-5-1-9-4-12-4-3-8-5-12-5z m18 192c-3 0-6 1-9 2l-86 50c-4 2-7 6-8 10-1 4 0 9 2 13 2 4 6 6 10 8 4 1 9 0 12-2l87-50c3-2 6-5 7-8 2-4 2-7 1-11-1-3-3-7-6-9-3-2-7-3-10-3z m-87-434c-4 0-7 1-10 3-3 3-5 6-6 9-1 4-1 8 1 11 1 3 4 6 7 8l86 50c2 1 4 2 7 2 2 1 4 0 6 0 2-1 4-2 6-3 2-1 3-3 4-5 1-2 2-4 2-6 1-2 1-5 0-7-1-2-2-4-3-6-1-1-3-3-5-4l-87-50c-2-1-5-2-8-2z" horiz-adv-x="1000" />

<glyph glyph-name="construction" unicode="&#xe822;" d="M490 359c9 0 16 7 16 16 0 9-7 16-16 16-8 0-16-7-16-16 0-9 8-16 16-16z m0-64c44 0 79 36 79 80 0 16-5 31-13 44l49 49c12-9 27-14 43-14 44 0 79 36 79 80 0 44-35 79-79 79-43 0-79-35-79-79 0-16 5-31 13-44l-48-49c-13 8-28 13-44 13-38 0-70-27-77-63h-36c-7 18-24 32-45 32-26 0-47-22-47-48 0-27 21-48 47-48 21 0 38 13 45 32h36c7-36 39-64 77-64z m158 287c27 0 48-22 48-48 0-26-21-48-48-48-26 0-47 22-47 48 0 26 21 48 47 48z m-158-159c26 0 48-22 48-48 0-27-22-48-48-48-26 0-47 21-47 48 0 26 21 48 47 48z m-158-64c-9 0-16 7-16 16 0 9 7 16 16 16 9 0 16-7 16-16 0-9-7-16-16-16z m316 159c9 0 16 7 16 16 0 9-7 16-16 16-8 0-15-7-15-16 0-9 7-16 15-16z m-629-414h44v-127h32v159h-19l51 82 50-82h-19v-286h32v254h44l-107 174-108-174z m44-159h32v-95h-32v95z m728 700h31v64h-19l51 81 50-81h-18v-286h31v254h45l-108 173-108-173h45v-32z m174-461c-16 3-28 13-34 28-6 14-5 31 5 43l9 13-86 87-13-9c-11-8-24-10-37-7 8 27 12 55 13 84h0v190h-31v-47c-51 103-156 175-278 175h-46c-18 0-36-2-54-6l-80 81-23-23c-4-5-10-6-16-3-6 2-9 7-9 13v33h-127v-33c0-6-3-11-9-14-6-2-12-1-16 4l-23 23-90-90 23-23c4-5 6-11 3-17-2-5-7-9-13-9h-33v-127h33c6 0 11-4 13-10 3-5 1-12-3-16l-23-23 90-90 23 23c4 4 10 6 16 3 6-2 9-8 9-13h0c3-116 68-220 171-272l19-10v-38c0-17 14-31 32-31h63v-14l15-2c11-2 21-8 27-16h-105c-18 0-32-14-32-32v-16c0-79 64-143 142-143 45 0 85 21 111 53 7 1 14 0 20-3 14-6 25-19 27-34l3-16h121l3 16c3 15 13 28 27 34 15 6 31 4 44-5l13-9 86 86-9 13c-10 13-11 30-5 44 6 15 18 25 34 28l15 2v123l-15 2z m-364-143h-7c-7 10-12 20-16 32h23c3 0 7 0 10 1 17-38 56-65 101-65 61 0 110 50 110 111 0 50-31 91-75 106 7 8 14 17 20 26 52-22 87-74 87-132 0-79-64-143-142-143-29 0-56 9-79 24v8c0 18-15 32-32 32z m63 155c-8-6-17-11-27-16l-4-2v213h31v-195z m-31-54l19 10c25 13 48 29 68 47 40-4 71-38 71-79 0-43-36-79-79-79-44 0-79 36-79 79v22z m-523 315l0-1-45 45 1 1c13 13 17 33 9 51-7 17-24 29-42 29h-1v63h1c18 0 35 11 43 29 7 18 3 38-10 51l-1 1 45 45 0-1c14-13 33-17 51-10 18 7 29 24 29 43v1h63v-1c0-19 11-36 29-43 18-7 37-3 51 10l0 1 44-44c-22-7-43-16-63-27-23 25-57 41-93 41-69 0-126-58-126-128 0-49 28-93 71-114-2-10-4-21-5-32-18 7-37 3-51-10z m92 132c-7 5-12 14-12 24 0 18 14 32 31 32 7 0 13-2 18-6-14-15-26-32-37-50z m60 73c-11 9-25 15-41 15-34 0-63-29-63-64 0-21 12-41 29-53-4-10-8-20-12-30-29 17-48 49-48 83 0 53 42 96 94 96 25 0 49-10 66-27-9-6-17-13-25-20z m81-482c-9 5-18 10-27 16v67h32v-85l-5 2z m-58 115v-75c-60 52-95 128-95 210 0 154 124 279 277 279h46c153 0 278-125 278-279 0-82-36-158-95-210v203h-95v-319h-63v159h-95v-159h-63v191h-95z m221-191h-32v128h32v-128z m16-63c-5 13-14 24-24 32h46c4-11 8-22 13-32h-35c0 0 0 0 0 0z m-32-159c-61 0-110 50-110 111v16h221v-16c0-61-50-111-111-111z m459 203c-22-6-39-22-48-44-8-21-7-45 3-65l-49-49c-20 10-44 11-65 2-21-8-37-26-44-47h-69c-7 21-23 39-44 47-4 2-9 4-14 5 5 10 9 21 11 32 25-14 53-21 82-21 96 0 174 79 174 175 0 70-41 131-102 159 5 10 10 20 14 29 19-5 39-3 57 6l49-50c-10-20-11-43-3-65 9-21 26-37 48-44v-70z" horiz-adv-x="982" />

<glyph glyph-name="user-rating-2" unicode="&#xe824;" d="M541 573c35 0 68 18 94 50 24 29 38 67 38 102 0 71-57 125-132 125-76 0-133-54-133-125 0-35 14-73 38-102 26-32 59-50 95-50z m0 239c54 0 93-37 93-87 0-63-51-114-93-114-52 0-94 63-94 114 0 50 39 87 94 87z m-157-424l-13-193c0-2 0-5 1-7 1-3 2-5 3-7 2-2 4-3 6-5 3-1 5-1 8-1h1c5 0 9 1 13 5 3 3 6 8 6 12l13 193c1 3 0 5 0 8-1 2-3 4-4 6-2 2-4 4-6 5-2 1-5 1-7 2-3 0-5 0-8-1-2-1-4-2-6-4-2-2-4-4-5-6-1-2-2-5-2-7v0z m416-213c6 0 10 3 14 7 3 4 5 9 4 14 0 0-20 146-23 195-5 88-59 158-142 171-30 5-83 8-111 8-38 0-76-3-114-8-39-5-75-25-101-55-27-31-39-71-41-116-3-49-22-195-22-195 0-3 0-5 1-8 1-2 2-5 3-7 2-2 4-3 6-4 2-2 5-2 7-3 3 0 5 0 8 1 2 1 4 2 6 3 2 2 4 4 5 6 1 3 2 5 2 8 0 0 19 147 22 197 4 70 45 126 110 135 36 5 72 7 108 8 26 0 78-4 105-8 30-4 57-19 77-42 22-25 31-58 33-93 3-50 23-198 23-198 1-4 4-9 7-12 4-3 9-5 13-4z m-124 231c-3 0-5-1-7-2-3-1-5-3-6-5-2-2-3-4-4-6-1-3-1-5-1-8l14-193c0-5 2-9 6-12 3-4 8-6 13-6h1c5 1 10 3 13 7 3 4 5 9 5 14l-14 193c0 2 0 5-2 7-1 2-2 4-4 6-2 2-4 3-7 4-2 1-5 1-7 1z m-13-406l92 90c3 3 4 6 5 10 1 3 1 7 0 10-1 4-3 7-6 9-3 2-6 4-10 4l-127 19-57 116c-1 3-4 6-7 8-3 2-7 3-10 3-4 0-7-1-10-3-3-2-6-5-7-8l-57-116-128-19c-3 0-6-2-9-4-3-2-5-5-6-9-1-3-1-7 0-10 0-4 2-7 5-10l92-90-22-127c0-4 0-8 1-11 2-3 4-6 7-8 3-2 6-4 10-4 3 0 7 1 10 2l114 60 114-60c2-1 6-2 9-2 2 0 5 1 8 2 2 1 4 3 6 5 2 2 3 5 4 7 1 3 1 6 1 9l-22 127z m-129-49c-22-11-88-46-88-46l16 99c1 3 1 6 0 9-1 3-3 5-5 8l-72 70 99 14c3 1 6 2 9 4 2 1 4 4 6 7l44 90 44-90c1-3 3-6 6-7 2-2 5-3 8-4l99-14-71-70c-3-3-4-5-5-8-1-3-1-6-1-9l17-99c0 0-66 35-88 46-3 2-6 2-9 2-3 0-6 0-9-2z m535 114l-93 13-41 85c-2 3-4 6-7 8-4 2-7 3-11 3-3 0-7-1-10-3-3-2-5-5-7-8l-41-85-94-13c-3-1-6-2-9-5-3-2-5-5-6-8-1-4-1-7 0-11 0-3 2-7 5-9l67-66-16-93c0-4 0-8 1-11 2-3 4-6 7-8 3-2 6-4 10-4 3 0 7 1 10 2l83 44 84-44c2-1 6-2 9-2 2 0 5 1 8 2 2 1 4 3 6 5 2 2 3 5 4 7 1 3 1 6 1 9l-16 93 67 66c3 2 4 6 5 9 1 4 1 7 0 11-1 3-3 6-6 8-3 3-6 4-10 5h0z m-161-130c-14-7-57-31-57-31l11 65c0 3 0 6-1 9-1 3-3 6-5 8l-47 46 65 10c3 0 6 1 9 3 2 2 4 4 5 7l29 59 29-59c2-3 4-5 6-7 3-2 6-3 9-3l64-10-46-46c-3-2-4-5-5-8-1-3-1-6-1-9l11-65c0 0-43 24-58 31-2 2-5 2-9 2-3 0-6 0-9-2z m-588 130l-93 13-41 85c-2 3-4 6-7 8-4 2-7 3-11 3-3 0-7-1-10-3-3-2-5-5-7-8l-41-85-94-13c-3-1-6-2-9-5-3-2-5-5-6-8-1-4-1-7 0-11 0-3 2-7 5-9l67-66-16-93c0-4 0-8 2-11 1-3 3-6 6-8 3-2 6-4 10-4 4 0 7 1 10 2l84 44 83-44c3-1 6-2 9-2 3 0 5 1 8 2 2 1 5 3 6 5 2 2 4 5 4 7 1 3 1 6 1 9l-16 93 67 66c3 2 4 6 5 9 1 4 1 7 0 11-1 3-3 6-6 8-3 3-6 4-10 5h0z m-160-130l-58-31 11 65c0 3 0 6-1 9-1 3-3 6-5 8l-47 46 65 10c3 0 6 1 9 3 2 2 4 4 5 7l29 59 29-59c2-3 4-5 6-7 3-2 6-3 9-3l64-10-46-46c-3-2-4-5-5-8-1-3-1-6-1-9l11-65-58 31c-2 2-5 3-9 3-3 0-6-1-8-3z" horiz-adv-x="1086" />

<glyph glyph-name="note" unicode="&#xe825;" d="M496-55h-398c-54 0-98 44-98 98v654c0 54 44 98 98 98h42c6 0 11-6 11-12v-27c0-6 5-11 11-11h345c6 0 11 5 11 11v27c0 6 5 12 12 12h42c54 0 97-44 97-98v-464c0-7-5-12-11-12h-47v-48c0-5-4-10-9-11-11-3-21-7-31-13-5-2-10-2-14 2l-34 34-29-30 33-33c4-4 5-10 2-15-5-9-10-20-13-30-1-6-6-9-11-9h-47v-42h47c6 0 10-3 11-8 3-11 8-22 13-31 3-5 2-11-2-15l-23-23c-2-2-5-4-8-4z m-398 826c-41 0-75-33-75-74v-654c0-41 34-74 75-74h393l14 14c-4 6-6 13-9 20h-50c-7 0-12 5-12 12v65c0 6 5 11 12 11h50c3 7 5 14 9 20l-36 36c-2 2-3 5-3 8 0 3 1 6 3 9l46 45c4 5 12 5 16 0l36-35c7 3 13 6 20 8v51c0 6 5 11 12 11h47v453c0 41-33 74-74 74h-31v-15c0-19-15-34-34-34h-345c-19 0-34 15-34 34v15h-30z m409-49h-345c-19 0-34 15-34 34v60c0 19 15 34 34 34h345c19 0 34-15 34-34v-60c0-19-15-34-34-34z m-345 105c-6 0-11-5-11-11l0-60c0-6 5-11 11-11h345c6 0 11 5 11 11v60c0 6-5 11-11 11h-345z m391-211h-436c-7 0-12 5-12 11 0 7 5 12 12 12h436c6 0 12-5 12-12 0-6-6-11-12-11z m0-113h-436c-7 0-12 5-12 12 0 6 5 11 12 11h436c6 0 12-5 12-11 0-7-6-12-12-12z m0-113h-436c-7 0-12 5-12 12 0 6 5 11 12 11h436c6 0 12-5 12-11 0-7-6-12-12-12z m0-113h-436c-7 0-12 5-12 12 0 6 5 12 12 12h436c6 0 12-6 12-12 0-7-6-12-12-12z m-207-113h-229c-7 0-12 5-12 12 0 6 5 12 12 12h229c7 0 12-6 12-12 0-7-5-12-12-12z m0-113h-229c-7 0-12 6-12 12 0 7 5 12 12 12h229c7 0 12-5 12-12 0-6-5-12-12-12z m318-201h-65c-7 0-12 5-12 12v50c-7 2-13 5-20 8l-36-35c-2-2-5-4-8-4-3 0-6 2-8 4l-46 46c-2 2-3 5-3 8 0 3 1 6 3 8l36 36c-4 6-6 13-9 20h-50c-7 0-12 5-12 12v65c0 6 5 11 12 11h50c3 7 5 14 9 20l-36 36c-2 2-3 5-3 8 0 3 1 6 3 9l46 45c2 3 5 4 8 4 3 0 6-1 8-4l36-35c7 3 13 6 20 8v51c0 6 5 11 12 11l65 0c6 0 11-5 11-11v-51c7-2 14-5 21-8l35 35c2 3 5 4 9 4 3 0 6-1 8-4l46-45c2-3 3-6 3-9 0-3-1-6-3-8l-36-36c3-6 6-13 8-20h51c6 0 11-5 11-11v-65c0-7-5-12-11-12h-51c-2-7-5-14-8-20l36-36c2-2 3-5 3-8 0-3-1-6-3-8l-46-46c-2-2-5-4-8-4-4 0-7 2-9 4l-35 35c-7-3-14-6-21-8v-50c0-7-5-12-11-12z m-53 23h41v48c0 5 4 10 9 11 11 3 21 7 31 13 4 3 10 2 14-2l34-33 29 29-34 33c-4 4-4 10-2 15 6 9 10 20 13 31 2 5 6 8 12 8h47v42h-47c-6 0-10 3-12 9-3 10-7 21-13 30-2 5-2 11 2 15l34 33-29 30-34-34c-4-4-10-4-14-2-10 6-20 10-31 13-5 1-9 6-9 11v48l-41 0v-48c0-5-4-10-9-11-11-3-21-7-31-13-5-2-10-2-14 2l-34 34-29-30 33-33c4-4 5-10 2-15-5-9-10-20-13-30-1-6-6-9-11-9l-47 0v-42l47 0c5 0 10-3 11-8 3-11 8-22 13-31 3-5 2-11-2-15l-33-33 29-29 34 33c4 4 9 5 14 2 10-6 20-10 31-13 5-1 9-6 9-11v-48z m20 110c-35 0-64 29-64 64 0 36 29 64 64 64 36 0 64-28 64-64 0-35-28-64-64-64z m0 105c-22 0-40-18-40-41 0-22 18-41 40-41 23 0 41 19 41 41 0 23-18 41-41 41z" horiz-adv-x="836" />

<glyph glyph-name="long-right" unicode="&#xe826;" d="M3908-65h-3816c-45 0-82 37-82 82 0 46 37 82 82 82h3618l-498 498c-32 32-32 84 0 116 32 32 84 32 116 0l638-638c24-23 30-59 18-89-13-31-43-51-76-51z" horiz-adv-x="4000" />

<glyph glyph-name="glove" unicode="&#xe828;" d="M500-150c-134 0-259 52-354 146-94 95-146 220-146 354 0 134 52 259 146 354 95 94 220 146 354 146 134 0 259-52 354-146 94-95 146-220 146-354 0-134-52-259-146-354-95-94-220-146-354-146z m0 969c-258 0-469-210-469-469 0-258 211-469 469-469 259 0 469 211 469 469 0 259-210 469-469 469z m359-500c-60 0-109 49-109 109v105c0 7-2 15-6 21-5 7-11 12-18 15-12 5-25 4-37-4-11-7-17-19-17-32v-16c0-24-9-46-26-63-17-17-39-26-63-26-46 0-85 36-88 82l-3 36c-2 21-11 41-25 57-14 16-32 27-53 31-41 10-76 38-92 78l-31 75c-4 8 0 18 8 21 8 3 17-1 21-9l31-75c12-30 39-52 70-59 27-6 52-21 70-42 18-21 29-47 32-75l3-36c2-29 27-53 57-53 15 0 30 6 41 17 11 11 17 26 17 41v16c0 23 11 45 31 58 20 13 45 16 67 6 12-5 23-14 31-26 7-11 11-24 11-38v-105c0-43 35-78 78-78 9 0 17 3 23 9 5 6 9 14 9 22 0 17 6 33 18 44 12 12 28 19 44 19h26c8 0 15-7 15-16 0-8-7-15-15-15h-26c-8 0-16-4-22-10-6-6-9-13-9-22 0-16-7-32-18-44-12-12-28-18-45-18z m42-256c-4 0-9 2-12 6-57 68-134 90-228 63-57-16-96-18-121-5-25 13-34 37-42 58-9 23-17 45-42 57-33 16-89 15-172-1-86-17-167-33-244-49-8-1-17 4-18 12-2 9 3 17 12 19 77 15 158 31 244 49 91 18 152 17 191-2 37-18 49-49 58-74 8-21 13-34 27-41 18-9 50-7 98 7 134 38 216-19 261-73 6-7 5-17-2-22-3-3-6-4-10-4z m-678 308c-8 0-17 2-26 5l-174 70c-8 3-12 12-9 20 3 8 12 12 20 9l175-70c5-2 10-3 14-3 19 0 35 14 38 33 2 12-2 24-10 33l-34 34c-10 9-17 20-22 32-5 12-7 25-7 38 0 22-11 43-29 56l-35 25c-7 5-9 15-4 22 5 7 15 9 22 4l35-25c26-19 42-49 42-82 0-9 2-17 5-26 3-8 8-16 15-22l34-34c16-16 23-38 19-61-6-33-34-58-69-58z" horiz-adv-x="1000" />

<glyph glyph-name="rank" unicode="&#xe829;" d="M56 582c0-136 110-247 246-247 136 0 247 111 247 247 0 136-111 246-247 246-136 0-246-110-246-246z m246 214c119 0 215-96 215-214 0-119-96-215-215-215-118 0-214 96-214 215 0 118 96 214 214 214z m-40-342h24v-23c0-9 7-16 16-16 9 0 16 7 16 16v23h24c26 0 48 22 48 48v40c0 31-25 56-56 56h-64c-13 0-23 10-23 23v40c0 9 7 16 15 16h80c9 0 16-7 16-16v-16c0-9 7-16 16-16 9 0 16 7 16 16v16c0 26-22 48-48 48h-24v24c0 9-7 16-16 16-9 0-16-7-16-16v-24h-24c-26 0-47-22-47-48v-40c0-30 25-55 55-55h64c13 0 24-11 24-24v-40c0-9-7-16-16-16h-80c-8 0-15 7-15 16v16c0 9-8 16-16 16-9 0-16-7-16-16v-16c0-26 21-48 47-48z m698 387c-9 14-20 10-41 2-14-6-28-11-43-17-27-10-54-21-81-31-3-1-5-2-8-3-8-3-12-12-9-20 3-9 12-13 20-10l122 47c-36-93-117-229-246-349-179-169-407-264-659-274-8 0-15-8-15-17 0-8 7-15 16-15 0 0 0 0 1 0 140 6 274 37 395 92 104 47 199 111 284 190 129 121 212 258 251 355l43-114c3-6 9-10 15-10 2 0 4 0 6 1 8 3 12 12 9 21-9 23-18 46-27 69-8 22-16 48-26 70-2 6-5 10-7 13z m2-323h-127c-26 0-48-21-48-48v-588h-39v358c0 26-22 47-48 47h-127c-27 0-48-21-48-47v-358h-40v238c0 27-21 48-48 48h-127c-26 0-48-21-48-48v-238h-39v191c0 26-22 47-48 47h-127c-27 0-48-21-48-47v-207c0-9 7-16 16-16h978c9 0 16 7 16 16v604c0 27-21 48-48 48z m-143-48c0 9 7 16 16 16h127c9 0 16-7 16-16v-588h-159v588z m-262-230c0 8 7 16 16 16h127c9 0 16-8 16-16v-358h-159v358z m-263-120c0 9 7 16 16 16h127c9 0 16-7 16-16v-238h-159v238z m-246-31h127c9 0 16-8 16-16v-191h-159v191c0 8 7 16 16 16z" horiz-adv-x="1025" />

<glyph glyph-name="feedback" unicode="&#xe82a;" d="M563 505c8 0 15 7 15 15v19c0 8-7 15-15 15-8 0-14-7-14-15v-19c0-8 6-15 14-15z m-126 0c8 0 15 7 15 15v19c0 8-7 15-15 15-8 0-15-7-15-15v-19c0-8 7-15 15-15z m63-116c28 0 51 23 51 51 0 8-6 15-14 15-8 0-15-7-15-15 0-12-10-22-22-22-12 0-22 10-22 22 0 8-7 15-15 15-8 0-14-7-14-15 0-28 23-51 51-51z m334-325c8 0 14 7 14 15v46c0 42-26 78-66 92l-182 57v58c43 31 64 82 62 134 33-3 70 17 70 55v31c0 15-6 28-15 38 0 1 0 42 0 42 0 8-6 14-14 14-9 0-15-6-15-14v-25h-205c-24 0-44 20-44 44v126c0 24 20 44 44 44h99c59 0 106-48 106-106v-20c0-8 6-14 15-14 8 0 14 6 14 14v20c0 75-60 135-135 135h-99c-36 0-66-26-72-61h-25c-56 0-102-46-102-102 0 0 0-96 0-97-10-10-16-23-16-38v-31c0-37 37-58 70-55-3-52 20-103 62-134v-59l-132-49c-13-5-24-13-32-24l-85-110v49c0 13-6 25-15 33v61c0 24-21 45-45 45-25 0-45-21-45-45v-50c-31 0-46-18-46-44v-124c0-19 13-36 30-42v-50c0-70 91-101 135-41l78 94v-111c0-8 6-15 14-15h577c8 0 14 7 14 15v150c0 8-6 15-14 15-8 0-15-7-15-15v-136h-92v195c0 8-6 14-15 14-8 0-14-6-14-14v-12h-426v15c0 8-7 15-15 15-8 0-14-7-14-15v-55l-101-122c-24-29-82-30-82 23v48h46v-15c0-9 7-15 15-15 8 0 15 6 15 15v26c9 8 15 20 15 33v27l108 140c5 6 12 11 19 14l134 50 79-59c6-5 14-4 19 0l79 60 184-58c27-9 46-35 46-64v-46c0-8 7-15 15-15z m-136-31v-93h-252c-8 0-14-7-14-15 0-8 6-14 14-14h252v-32h-426v32h110c9 0 15 6 15 14 0 8-6 15-15 15h-110v93h426z m-623 200c0 8 7 15 16 15 8 0 15-7 15-15v-50h-31v50z m-46-94c0 8 7 14 15 14h63c8 0 14-6 14-14v-17h-46c-8 0-14-7-14-15 0-8 6-14 14-14h46v-32h-46c-8 0-14-6-14-14 0-8 6-15 14-15h46v-17c0-10-6-14-14-14l-63 0c-8 0-15 6-15 14v124z m674 382c0-14-12-26-27-26h-14v83h14c15 0 27-12 27-26v-31z m-390 166c0 40 33 73 73 73h24v-109c0-24-20-44-44-44h-53v80z m11-192c-15 0-26 12-26 26v31c0 14 11 26 26 26h14v-83l-14 0z m44-42v125c23 1 43 12 56 29 14-17 35-29 59-29h149l0-125c0-161-264-161-264 0z m203-138v-45l-71-53-71 53v45c35-21 105-20 142 0z m-491 116c7-5 14-5 21 0l61 61c5 6 5 15 0 21-6 5-15 5-21 0l-50-51-20 20c-6 6-15 6-21 0-6-5-6-15 0-20l30-31z m-36-96h123c25 0 44 20 44 44v17h46c16 0 23 12 11 25l-57 57v87c0 24-19 44-44 44h-123c-24 0-44-20-44-44v-186c0-24 20-44 44-44z m-15 230c0 8 7 14 15 14h123c9 0 15-6 15-14v-93c0-4 2-8 4-10l36-37h-25c-8 0-15-6-15-14v-32c0-8-6-14-15-14h-123c-8 0-15 6-15 14v186z" horiz-adv-x="850" />

<glyph glyph-name="happy" unicode="&#xe82b;" d="M866 106c-1 2-3 4-4 5-2 2-4 3-6 3l-61 19c-2 1-4 1-7 1-2 0-4-1-6-2-1-1-3-2-5-4-1-1-2-3-3-5l-4-16-139 44-65 20c-6 2-13 3-19 2-7-1-14-3-19-6l-168-97c-6-3-11-7-15-12-4-6-7-12-9-18l-132 41c-12 4-25 3-36-3-12-6-20-16-24-28l-10-31c-4-12-2-26 4-37 5-12 16-20 28-24l339-106c12-4 26-3 37 3l140 72c4 2 8 3 12 1l18-5-5-16c-1-4-1-8 1-12 2-4 6-7 10-8l61-19c2-1 4-1 5-1 4 0 7 1 10 3 2 2 4 5 6 9l67 215c1 4 1 9-1 12z m-162-147c-13 4-26 3-37-3l-140-72c-4-2-8-2-12-1l-339 106c-5 1-8 4-10 8-2 4-2 8-1 12l10 31c0 2 1 4 3 6 1 1 3 2 4 3 2 1 4 2 7 2 2 0 4 0 6 0l145-46c0 0 0 0 0 0l15-29c6-11 16-20 28-23 13-4 26-3 37 3l129 67c2 1 3 3 5 4 1 2 2 4 3 6 0 2 1 4 0 6 0 2 0 4-1 6-1 2-3 4-4 5-2 1-4 2-6 3-2 1-4 1-6 1-2 0-4-1-6-2l-129-68c-3-2-8-2-12-1-4 2-7 4-9 8l-15 29c-1 1-1 2-2 3-1 3 0 7 1 11 1 3 4 6 7 8 1 0 1 0 1 0l168 97c2 1 4 2 6 2 2 0 4 0 7-1l65-20 138-43-38-124-18 6z m70-55l-31 9 57 185 31-10-57-184z m-274 300c177 0 322 145 322 323 0 31-5 62-14 93l28-15c3-1 6-2 9-2 3 0 5 2 8 3 2 2 4 4 5 7 1 3 2 6 1 9l-12 69 51 49c2 3 3 5 4 8 1 3 1 6 0 9-1 3-3 5-5 7-2 2-5 3-8 4l-70 10-31 63c-1 3-3 5-6 7-2 1-5 2-8 2-3 0-6-1-9-2-2-2-4-4-6-7l-31-63-23-3c-57 48-130 74-205 74-178 0-323-145-323-322 0-178 145-323 323-323z m253 552l21 41 20-41c1-2 3-4 5-6 2-1 5-2 7-3l46-6-33-32c-2-2-3-5-4-7-1-3-1-5-1-8l8-45-31 16c-15 30-33 57-56 81l6 1c3 1 5 2 7 3 2 2 4 4 5 6z m-253 61c160 0 290-130 290-290 0-160-130-291-290-291-160 0-290 131-290 291 0 160 130 290 290 290z m-161-387c0-71 72-129 161-129 89 0 161 58 161 129 0 4-2 8-5 11-3 3-7 5-11 5h-290c-5 0-9-2-12-5-3-3-4-7-4-11z m288-16c-10-46-64-81-127-81-64 0-117 35-127 81h254z m-321 145c5 0 9 2 12 5 3 3 4 7 4 11 0 13 5 25 15 34 9 9 21 14 34 14 13 0 25-5 34-14 9-9 14-21 14-34 0-4 2-8 5-11 3-3 7-5 11-5 4 0 9 2 12 5 3 3 4 7 4 11 0 21-8 42-23 57-15 15-36 24-57 24-22 0-42-9-57-24-15-15-24-36-24-57 0-4 2-8 5-11 3-3 7-5 11-5z m258 0c4 0 9 2 12 5 3 3 4 7 4 11 0 13 5 25 14 34 10 9 22 14 35 14 12 0 25-5 34-14 9-9 14-21 14-34 0-4 2-8 5-11 3-3 7-5 11-5 4 0 8 2 11 5 4 3 5 7 5 11 0 21-8 42-23 57-16 15-36 24-57 24-22 0-42-9-57-24-15-15-24-36-24-57 0-4 2-8 5-11 3-3 7-5 11-5z m-365-453c2 0 4 0 7 1 2 1 4 3 5 4 2 2 3 4 3 6 1 3 1 5 1 7l-12 70 50 49c2 2 4 5 4 7 1 3 1 6 0 9-1 3-3 6-5 8-2 2-5 3-8 3l-69 10-32 63c-1 3-3 5-6 7-2 2-5 2-8 2-3 0-6 0-9-2-2-2-4-4-5-7l-32-63-69-10c-3 0-6-1-8-3-3-2-4-5-5-8-1-3-1-6 0-9 0-2 2-5 4-7l50-49-12-70c0-3 0-6 1-8 1-3 3-6 6-7 2-2 5-3 8-3 3-1 6 0 9 1l62 33 62-33c3-1 5-1 8-1z m-63 67c-2 1-4 1-7 1-3 0-5 0-8-1l-40-22 7 46c1 2 1 5 0 7-1 3-2 5-4 7l-33 32 45 7c3 0 5 1 8 3 2 1 3 3 5 6l20 41 20-41c2-3 3-5 5-6 2-2 5-3 8-3l45-7-33-32c-2-2-3-4-4-7-1-2-1-5 0-7l7-46-41 22z m863 162c-1 3-3 5-5 7-3 2-6 3-8 4l-48 7-21 42c-1 3-3 5-6 7-2 2-5 2-8 2-3 0-6 0-9-2-2-2-5-4-6-7l-21-42-47-7c-3-1-6-2-8-4-3-2-4-4-5-7-1-3-1-6-1-9 1-3 3-6 5-8l34-33-8-47c-1-3 0-6 1-9 1-3 3-5 5-7 3-2 6-3 9-3 3 0 6 0 8 2l43 22 42-22c3-2 6-2 9-2 3 0 5 1 8 3 2 2 4 4 5 7 1 3 2 6 1 9l-8 47 34 33c3 2 4 5 5 8 1 3 0 6 0 9z m-67-33c-2-2-4-4-4-7-1-2-1-5-1-7l4-24-21 11c-2 2-5 2-7 2-3 0-6 0-8-2l-21-11 4 24c1 2 0 5 0 7-1 3-3 5-4 7l-17 16 23 4c3 0 5 1 7 3 2 1 4 3 5 6l11 21 10-21c1-3 3-5 5-6 2-2 5-3 7-3l24-4-17-16z m-877 410l-8-47c0-3 0-6 1-9 1-3 3-5 6-7 2-2 5-3 8-3 3 0 6 0 9 2l42 22 42-22c3-2 6-2 9-2 3 0 6 1 8 3 3 2 4 4 6 7 1 3 1 6 1 9l-9 47 35 33c2 2 3 5 4 8 1 3 1 6 0 9-1 3-3 5-5 7-2 2-5 3-8 4l-48 7-21 42c-1 3-3 5-6 7-2 2-5 2-8 2-3 0-6 0-9-2-2-2-4-4-6-7l-21-42-47-7c-3-1-6-2-8-4-2-2-4-4-5-7-1-3-1-6 0-9 0-3 2-6 4-8l34-33z m35 37c3 0 5 1 7 3 3 1 4 3 5 6l11 21 10-21c1-3 3-5 5-6 2-2 5-3 7-3l24-3-17-17c-2-2-3-4-4-6-1-3-1-6-1-8l4-23-21 11c-2 1-5 1-7 1-3 0-5 0-8-1l-21-11 4 23c1 2 1 5 0 8-1 2-2 4-4 6l-17 17 23 3z" horiz-adv-x="1000" />

<glyph glyph-name="foot" unicode="&#xe82c;" d="M692 422c-38 38-89 59-142 59-53 0-104-21-141-59-126-128-35-349 141-348 176-1 268 220 142 348z m-24-264c-31-32-73-50-118-50-44 0-86 18-118 50-105 105-28 291 118 289 146 2 223-184 118-289z m164-70c7 12 10 28 9 42-2 15-9 29-19 40l-20 19c58 159-55 345-225 359-23 35-54 65-91 85-36 20-78 31-119 31-199 3-321-233-207-398 57-84 77-128 77-166 1-32-21-78-21-114 0-19 4-38 12-56 8-17 19-33 33-46 14-12 31-22 49-28 17-5 36-7 55-5 19 2 37 8 53 18 16 10 30 23 41 38 11 16 18 34 22 52 4 19 3 38-1 57 52-14 107-12 157 5l19-19c11-11 25-18 39-19 15-2 30 1 42 8l120-121c13-13 30-20 47-20 18 0 35 8 47 20 13 13 20 30 20 48 0 18-7 35-19 48l-120 122z m-385-77c27-150-188-177-197-25 2 37 22 79 20 114 0 46-21 95-82 185-149 238 166 476 347 263-280-19-347-402-91-519 1-6 2-12 3-18z m-62 99c-44 44-68 105-68 168 0 63 24 123 68 167 44 45 103 70 165 70 62 0 122-25 165-69 211-232-102-550-330-336z m295-84l-10 10c51 26 93 68 119 120l9-10c6-7 10-15 10-24 0-9-4-18-10-24l-71-72c-6-6-14-10-23-10-9 0-18 4-24 10z m248-132c-6-6-15-10-24-10-8 0-17 4-23 10l-118 120 47 48 118-120c6-7 10-15 10-24 0-9-4-18-10-24z m-378 753c27 0 52 11 71 30 19 19 29 45 29 72-4 135-195 135-200 0 0-27 11-53 29-72 19-19 45-30 71-30z m0 170c18 0 35-7 47-20 12-13 19-30 19-48 0-18-7-35-19-48-12-12-29-20-47-20-17 0-34 8-47 20-12 13-19 30-19 48 0 18 7 35 19 48 13 13 30 20 47 20z m-192-119c18 0 35 8 47 20 13 13 19 30 19 48 0 18-6 35-19 48-12 12-29 20-47 20-17 0-34-8-46-20-13-13-20-30-20-48 0-18 7-35 20-48 12-12 29-20 46-20z m0 102c9 0 18-4 24-10 6-6 9-15 9-24 0-9-3-17-9-24-6-6-15-10-24-10-8 0-17 4-23 10-6 7-10 15-10 24 0 9 4 18 10 24 6 6 15 10 23 10z m-142-153c18 0 35 8 47 20 13 13 20 30 20 48 0 18-7 35-20 48-12 13-29 20-47 20-17 0-34-7-46-20-13-13-20-30-20-48 0-18 7-35 20-48 12-12 29-20 46-20z m0 102c9 0 18-4 24-10 6-6 9-15 9-24 0-9-3-17-9-24-6-6-15-10-24-10-8 0-17 4-23 10-6 7-10 15-10 24 0 9 4 18 10 24 6 6 15 10 23 10z m-58-119c0 16-6 31-17 42-11 11-26 17-41 17-16 0-31-6-41-17-11-11-18-26-18-42 0-15 7-30 18-41 10-11 25-18 41-18 15 0 30 7 41 18 11 11 17 26 17 41z m-58-25c-7 0-13 3-18 7-4 5-7 12-7 18 0 7 3 13 7 18 5 5 11 8 18 8 6 0 12-3 17-8 5-5 7-11 7-18 0-6-2-13-7-18-5-4-11-7-17-7z m-50-43c-14 0-26-5-35-15-10-9-15-22-15-35 0-14 5-27 15-36 9-10 21-15 35-15 13 0 25 5 35 15 9 9 14 22 14 36 0 13-5 26-14 35-10 10-22 15-35 15z m0-67c-5 0-9 1-12 5-3 3-5 7-5 12 0 4 2 8 5 11 3 4 7 5 12 6 4-1 8-2 11-6 3-3 5-7 5-11 0-5-2-9-5-12-3-4-7-5-11-5z" horiz-adv-x="978" />

<glyph glyph-name="search-2" unicode="&#xe82e;" d="M984-70l-261 262c56 68 88 156 88 252 0 222-184 406-407 406-224 0-404-184-404-406 0-225 182-406 404-406 94 0 182 31 252 87l262-261c10-10 22-14 35-14 12 0 24 4 31 14 20 17 20 46 0 66z m-890 514c0 172 138 312 312 312 172 0 313-140 313-312 0-174-141-313-313-313-174 0-312 139-312 313z" horiz-adv-x="1063" />

<glyph glyph-name="clock" unicode="&#xe82f;" d="M438 596c0 14 12 29 29 29 14 0 29-15 29-29v-248l160-108c15-9 19-27 9-40-9-14-27-18-40-9l-175 117c-9 5-14 14-14 25l2 263z m29 204c257 0 466-210 466-467 0-258-209-466-466-466-259 0-467 208-467 466 0 257 208 467 467 467z m-409-467c0-226 183-408 409-408 224 0 408 182 408 408 0 225-184 409-408 409-226 0-409-184-409-409z" horiz-adv-x="933" />

<glyph glyph-name="quote-2" unicode="&#xe830;" d="M1058 831c-163 0-289-129-289-289 0-162 126-288 289-288 72 0 138 27 192 72v-72c0-159-132-289-288-289h-48c-28 0-49-24-49-48 0-27 21-48 49-48h48c210 0 384 172 384 385v288c0 160-129 289-288 289z m0-481c-108 0-193 84-193 192 0 106 85 193 193 193 105 0 192-87 192-193 0-108-87-192-192-192z m-769 481c-163 0-289-129-289-289 0-162 126-288 289-288 72 0 138 27 192 72v-72c0-159-132-289-289-289h-48c-27 0-48-24-48-48 0-27 21-48 48-48h48c211 0 385 172 385 385v288c0 160-129 289-288 289z m0-481c-109 0-193 84-193 192 0 106 84 193 193 193 105 0 192-87 192-193 0-108-87-192-192-192z" horiz-adv-x="1346" />

<glyph glyph-name="quote-3" unicode="&#xe831;" d="M289 831c159 0 288-129 288-289v-288c0-213-174-385-385-385-54 0-96 42-96 96 0 52 42 97 96 97 106 0 193 84 193 192v15c-33-9-63-15-96-15-163 0-289 126-289 288 0 160 126 289 289 289z m1057-289v-288c0-213-174-385-384-385-54 0-97 42-97 96 0 52 43 97 97 97 105 0 192 84 192 192v15c-33-9-63-15-96-15-163 0-289 126-289 288 0 160 126 289 289 289 159 0 288-129 288-289z" horiz-adv-x="1359" />

<glyph glyph-name="headphone" unicode="&#xe832;" d="M378 390v-240c0-34-26-60-60-60h-60c-65 0-120 54-120 120v120c0 66 53 120 120 120h60c32 0 60-28 60-60z m-60-240v240h-60c-34 0-60-28-60-60v-120c0-34 26-60 60-60h60z m420-60v-2h-58c-34 0-60 26-60 60v240c0 32 26 60 60 60h58c66 0 120-52 120-118v-120c0-66-54-120-120-120z m-60 300l-2-240h60c32 0 60 26 60 60v120c0 32-28 60-60 60h-58z m-133 416c248-22 435-240 431-489v-319c0-82-67-148-150-148h-358c-54 0-97 49-88 107 9 43 49 73 92 73h109c35 0 71-19 88-51 13-24 13-48 4-69h157c49 0 90 41 90 90v317c0 219-163 411-382 431-252 23-452-180-458-418v-32c-2-15-15-28-30-28-17 0-32 13-32 30l2 28c8 276 236 506 525 478z m43-896c17 0 30 13 30 30 0 15-15 30-30 30h-120c-17 0-30-15-30-30 0-17 13-30 30-30h120z" horiz-adv-x="980" />

<glyph glyph-name="map" unicode="&#xe833;" d="M505 636c0 25 19 46 46 46 25 0 46-21 46-46 0-27-21-46-46-46-27 0-46 19-46 46z m17-383c-61 77-201 262-201 367 0 127 102 230 230 230 126 0 230-103 230-230 0-105-142-290-203-367-14-19-42-19-56 0z m178 300c14 31 19 52 19 67 0 92-76 169-168 169-94 0-168-77-168-169 0-15 4-36 17-67 11-30 31-63 50-95 32-54 70-105 101-144 29 39 67 90 100 144 19 32 38 65 49 95z m75-130c0-2-2-2-4-2 15 27 31 56 42 83l226 90c29 11 63-10 63-42v-519c0-19-11-36-31-42l-296-119c-6-4-12-4-19-2l-419 121-276-111c-28-12-61 9-61 42v519c0 19 10 36 29 42l235 95c4-21 10-40 17-59l-220-88v-486l245 98v225c0 16 14 31 31 31 15 0 30-15 30-31v-222l368-105v327c0 16 13 31 30 31 16 0 31-15 31-31v-323l245 98v486l-266-106z" horiz-adv-x="1102" />

<glyph glyph-name="envelope-open" unicode="&#xe834;" d="M969 475c15 0 31-16 31-31v-502c0-51-43-92-94-92h-812c-53 0-94 41-94 94v500c0 15 14 31 31 31 16 0 32-16 32-31v-500c0-18 13-32 31-32h812c16 0 32 14 32 32v500c0 15 13 31 31 31z m-844-166c0 2 0 4 0 6 0 2 0 2 0 4v437c0 51 41 94 94 94h562c51 0 94-43 94-94v-437c0-2-2-2-2-2 0-2 0-4 0-6-2-2-2-4-2-6-2-2-2-2-4-4-2-2-2-4-4-6-2 0-2 0-2 0l-259-191c-30-23-65-35-102-35-39 0-74 12-103 33l-260 191c0 0 0 0-2 0-2 2-2 4-4 6-2 2-2 2-4 4 0 2 0 4-2 6z m63 447v-422l246-181c39-30 91-30 131 0l248 181v422c0 16-16 32-32 32h-562c-18 0-31-16-31-32z m500-375c0-17-16-31-32-29h-312c-18 0-31 14-31 29 0 18 13 32 31 32h312c16 0 32-14 32-32z m-344 157c-18 0-31 13-31 31 0 13 13 29 31 29h312c16 0 32-14 32-29 0-16-16-31-32-31h-312z" horiz-adv-x="1000" />

<glyph glyph-name="working-time" unicode="&#xe835;" d="M200 633c0-36 9-70 25-100h-58v34c0 46-37 83-84 83-46 0-83-37-83-83v-642c0-41 33-75 75-75h858c37 0 67 30 67 67v550c0 36-29 66-67 66h-100v24l157 63c13 5 14 24 1 30l-158 79v4c0 10-7 17-17 17-9 0-16-7-16-17v-200h-191c15 30 24 64 24 100 0 120-96 217-216 217-120 0-217-97-217-217z m616 217c-9 0-16-8-16-17v-17c1-21 33-21 33 0v17c0 10-7 17-17 17z m-399-33c101 0 183-82 183-184 0-101-82-183-183-183-101 0-184 82-184 183 0 102 83 184 184 184z m309-34l12-12c17-16 39 7 24 23l-12 12c-3 3-7 5-12 5-15 0-22-18-12-28z m158 23l-12-12c-15-16 7-38 23-23l12 12c11 11 3 29-12 28-5 0-8-2-11-5z m-484-56v-117c0-4 2-8 5-11l50-50c16-16 39 7 24 23l-46 45v110c1 9-7 17-16 17-10 0-17-8-17-17z m433-59l110-54-110-44v98z m-750-74c28 0 50-22 50-50v-534c0-18-14-33-33-33h-25c-16 0-30-5-42-13v580c0 28 23 50 50 50z m84-117h79c40-51 101-83 171-83 69 0 131 32 171 83h212v-67h-17c-18 0-33-15-33-33v-50c-1 0-1 0-2 0-21-3-19-33 2-33h32l-131-97c-9 8-21 13-34 13-13 0-25-4-34-12l-118 85c1 3 2 7 2 11 0 27-23 50-50 50-28 0-50-23-50-50 0-5 0-9 1-13l-162-124c-17-14 3-40 21-26l160 123c8-7 19-10 30-10 11 0 22 4 31 10l119-86c0-2 0-5 0-8 0-27 22-50 50-50 27 0 50 23 50 50 0 3 0 5-1 7l173 127h44c23 0 23 33 0 33v50c0 18-14 33-33 33h-17v67h100c19 0 34-15 34-33v-550c0-19-15-34-34-34h-858c-23 0-42 19-42 42 0 23 19 42 42 42h25c37 0 67 30 67 66l0 467z m416-100c-15 0-22-18-11-28l13-14-13-13c-16-17 8-39 23-23l13 13 14-13c16-16 39 7 23 23l-13 13 13 14c11 10 3 28-12 28-4 0-8-2-11-5l-14-13-13 13c-3 3-7 5-12 5z m200 0h67v-50h-67v50z m-366-67c9 0 16-7 16-16 0-10-7-17-16-17-10 0-17 9-17 17 0 9 8 16 17 16z m416-100c-14 0-22-17-11-28l13-13-13-13c-16-16 7-40 23-24l13 13 14-13c16-15 39 8 23 24l-13 13 13 13c11 11 3 29-12 28-4 0-8-1-11-5l-14-13-13 13c-3 4-7 5-12 5z m-216-33c9 0 16-7 16-17 0-9-7-16-16-16-9 0-17 7-17 16 0 10 8 17 17 17z m-317-66c-3-1-7-2-9-3l-50-34c-19-12 0-40 18-27l41 27 41-27c5-4 13-4 18 0l41 27 41-27c5-4 13-4 18 0l41 27 41-27c18-13 37 15 18 27l-50 34c-5 3-13 3-18 0l-41-28-41 28c-5 3-13 3-18 0l-41-28-41 28c-3 2-6 3-9 3z m417-67c-23 0-23-34 0-34h16c23 0 23 34 0 34h-16z m83 0c-22 0-22-34 0-34h17c22 0 22 34 0 34h-17z m83 0c-22 0-22-34 0-34h17c22 0 22 34 0 34h-17z m-583-17c-3 0-7-1-9-3l-50-33c-19-12 0-41 18-28l41 27 41-27c5-4 13-4 18 0l41 27 41-27c5-4 13-4 18 0l41 27 41-27c18-13 37 16 18 28l-50 33c-5 4-13 4-18 0l-41-27-41 27c-5 4-13 4-18 0l-41-27-41 27c-3 2-6 3-9 3z" horiz-adv-x="1000" />

<glyph glyph-name="progress" unicode="&#xe836;" d="M200 733h250c5 0 9 2 12 5 3 3 5 8 5 12 0 4-2 9-5 12-3 3-7 5-12 5h-250c-4 0-8-2-11-5-3-3-5-8-5-12 0-4 2-9 5-12 3-3 7-5 11-5z m384-50h-384c-4 0-8-1-11-5-3-3-5-7-5-11 0-5 2-9 5-12 3-3 7-5 11-5h384c4 0 8 2 12 5 3 3 4 7 4 12 0 4-1 8-4 11-4 4-8 5-12 5z m-250-83h-134c-4 0-8-2-11-5-3-3-5-7-5-12 0-4 2-8 5-11 3-3 7-5 11-5h134c4 0 8 2 11 5 3 3 5 7 5 11 0 5-2 9-5 12-3 3-7 5-11 5z m-267-283v-130c-4 0-7 0-10-1-3-2-5-4-7-7l-48-83c-2-4-3-8-1-12 1-5 4-8 7-11l41-23c-1-5-1-11 0-17l-41-23c-3-2-6-6-7-10-2-5-1-9 1-13l48-83c2-3 6-6 10-7 4-1 9-1 13 1l40 24c5-4 10-6 15-9v-46c0-5 2-9 5-12 3-3 7-5 12-5h95c5 0 9 2 12 5 3 3 5 7 5 12v46c5 3 10 5 15 9l40-24c4-2 8-2 12-1 5 1 8 4 11 7l45 79h437c14 0 26 6 36 15 9 9 14 22 15 35v284c-1 13-6 26-15 35-10 9-22 15-36 15h-700c-13 0-26-6-36-15-9-9-14-22-14-35z m247-381l-35 20c-17 8-30-14-45-17-3-1-6-3-8-6-2-3-3-6-3-9v-41h-62v41c0 3-1 6-3 9-1 3-4 5-7 6-16 3-28 25-45 17l-35-20-31 53 35 21c12 6 6 22 7 32-1 10 5 26-7 32l-35 20 31 54 35-20c17-9 29 13 45 16 3 1 6 4 7 6 2 3 3 6 3 10v40h62v-40c0-4 1-7 3-10 2-2 5-5 8-6 15-3 28-25 45-16l35 20 31-54-35-20c-12-6-7-22-7-32 0-10-5-26 7-32l35-21-31-53z m503 397c5 0 9-1 12-5 3-3 5-7 5-11v-284c0-4-2-8-5-11-3-4-7-5-12-5h-452l-29 16c0 6 0 12 0 17l40 23c4 3 7 6 8 11 1 4 1 8-2 12l-47 83c-2 2-3 3-5 5-1 1-3 2-6 3-2 0-4 0-6 0-2 0-4-1-6-2l-40-23c-5 3-10 6-15 8v47c0 4-2 8-5 12-3 3-7 4-12 4h-95c-5 0-9-1-12-4-3-4-5-8-5-12v-47c-5-2-10-5-15-8l-13 7v148c0 4 2 8 5 11 3 4 7 5 12 5h700z m-617-83h250c5 0 9 2 12 5 3 3 5 7 5 12 0 4-2 8-5 11-3 4-7 5-12 5h-250c-4 0-8-1-11-5-3-3-5-7-5-11 0-5 2-9 5-12 3-3 7-5 11-5z m167-67c0-4 2-8 5-11 3-4 7-5 12-5h200c4 0 9 1 12 5 3 3 5 7 5 11 0 5-2 9-5 12-3 3-8 5-12 5h-200c-5 0-9-2-12-5-3-3-5-7-5-12z m167-66h-100c-5 0-9-2-12-5-3-3-5-8-5-12 0-4 2-9 5-12 3-3 7-5 12-5h100c4 0 8 2 11 5 4 3 5 8 5 12 0 4-1 9-5 12-3 3-7 5-11 5z m-342 0c-19 0-38-8-52-22-14-15-22-34-22-53 0-20 8-39 22-53 14-14 33-22 52-22 20 0 39 8 53 22 14 14 22 33 22 53 0 19-8 38-22 53-14 14-33 22-53 22z m0-117c-11 0-21 5-29 12-8 8-12 19-12 30 0 11 4 21 12 29 8 8 18 12 29 12 11 0 22-4 29-12 8-8 13-18 13-29 0-11-5-22-13-30-7-7-18-12-29-12z m676 799c0 7-2 13-4 19-2 7-6 12-11 17-4 5-10 9-16 11-6 3-13 4-20 4h-700c-13 0-26-5-36-15-9-9-14-22-14-35v-283c0-14 5-26 14-36 10-9 23-14 36-14h333v-43l-4 5c-4 3-8 4-12 4-5 0-9-2-12-5-3-3-5-7-5-11 0-5 2-9 5-12l33-33c3-3 8-5 12-5 5 0 9 2 12 5l33 33c3 3 5 7 5 12 0 4-2 8-5 11-3 3-7 5-12 5-4 0-8-1-11-4l-5-5v43h333c11 0 21 3 30 9 8 6 14 15 18 25 179 21 181 274 3 298z m-751-299c-5 0-9 2-12 5-3 3-5 7-5 12v283c0 4 2 9 5 12 3 3 7 5 12 5h700c3 0 5-1 7-2 2-1 4-2 6-4 1-1 2-3 3-5 1-2 1-5 1-7-172-23-178-264-9-297-2-1-5-2-8-2h-700z m734 33c-31 0-61 13-83 35-22 21-34 51-34 82 6 154 228 154 234 0 0-31-13-61-35-82-22-22-51-35-82-35z m55 162l-55-55-22 22c-3 3-7 5-11 4-5 0-9-1-12-4-3-3-5-8-5-12 0-4 2-9 5-12l33-33c2-2 3-3 5-4 2-1 5-1 7-1 2 0 4 0 6 1 2 1 4 2 6 4l66 67c3 3 5 7 5 11 0 5-2 9-5 12-3 3-7 5-12 5-4 0-8-2-11-5z" horiz-adv-x="1000" />
</font>
</defs>
</svg>
