<svg width="527" height="141" viewBox="0 0 527 141" fill="none" xmlns="http://www.w3.org/2000/svg">
<path d="M203.172 93.3985V36.4699H225.823C229.974 36.4699 233.582 37.1612 236.646 38.5437C239.711 39.8992 242.079 41.851 243.751 44.3992C245.422 46.9475 246.258 49.9837 246.258 53.5078C246.258 56.3271 245.659 58.8076 244.461 60.9492C243.263 63.0908 241.606 64.8664 239.488 66.2761C237.399 67.6858 234.975 68.6752 232.217 69.2445L249.225 93.3985H236.187L221.059 71.115H214.038V93.3985H203.172ZM214.038 62.4538H224.235C227.717 62.4538 230.434 61.7489 232.384 60.3393C234.334 58.9025 235.309 56.8151 235.309 54.0771C235.309 51.2307 234.418 49.062 232.635 47.571C230.851 46.08 228.233 45.3345 224.778 45.3345H214.038V62.4538Z" fill="#121212"/>
<path d="M255.149 93.3985V36.4699H294.056V45.7411H266.015V59.526H290.002V68.1873H266.015V84.046H294.348V93.3985H255.149Z" fill="#121212"/>
<path d="M302.8 93.3985V36.4699H313.331L341.038 75.6693V36.4699H351.611V93.3985H341.08L313.373 53.7111V93.3985H302.8Z" fill="#121212"/>
<path d="M389.493 94.6184C385.063 94.6184 380.954 93.8729 377.165 92.3819C373.404 90.8638 370.13 88.7629 367.344 86.0791C364.558 83.3954 362.399 80.2507 360.867 76.6452C359.334 73.0398 358.568 69.1361 358.568 64.9342C358.568 60.7052 359.334 56.788 360.867 53.1825C362.399 49.577 364.558 46.4324 367.344 43.7486C370.13 41.0649 373.404 38.9775 377.165 37.4865C380.954 35.9955 385.063 35.25 389.493 35.25C393.895 35.25 397.977 36.009 401.738 37.5271C405.499 39.0452 408.772 41.1597 411.558 43.8706C414.344 46.5815 416.517 49.7397 418.078 53.3452C419.638 56.9235 420.418 60.7866 420.418 64.9342C420.418 69.1361 419.638 73.0398 418.078 76.6452C416.517 80.2507 414.344 83.3954 411.558 86.0791C408.772 88.7629 405.499 90.8638 401.738 92.3819C397.977 93.8729 393.895 94.6184 389.493 94.6184ZM389.493 84.6559C392.251 84.6559 394.814 84.1951 397.182 83.2734C399.578 82.3246 401.654 80.9962 403.409 79.2884C405.192 77.5534 406.571 75.4796 407.546 73.0669C408.549 70.6271 409.051 67.9162 409.051 64.9342C409.051 60.9492 408.187 57.4793 406.46 54.5244C404.733 51.5695 402.392 49.2788 399.439 47.6523C396.486 46.0258 393.171 45.2125 389.493 45.2125C386.707 45.2125 384.13 45.6734 381.762 46.5951C379.394 47.5168 377.318 48.8451 375.535 50.5801C373.78 52.315 372.401 54.3889 371.398 56.8016C370.423 59.2142 369.935 61.9251 369.935 64.9342C369.935 68.9192 370.785 72.3892 372.484 75.344C374.212 78.2989 376.552 80.5896 379.505 82.2161C382.458 83.8426 385.788 84.6559 389.493 84.6559Z" fill="#121212"/>
<path d="M441.1 93.3985L418.91 36.4699H431.154L447.202 79.573L462.748 36.4699H474.741L453.01 93.3985H441.1Z" fill="#121212"/>
<path d="M468.939 93.3985L491.38 36.4699H503.5L526.401 93.3985H514.156L509.183 80.5083H485.655L480.849 93.3985H468.939ZM488.33 71.5217H506.425L497.231 48.4249L488.33 71.5217Z" fill="#121212"/>
<path d="M221.821 140.071C218.937 140.69 216.347 141 214.05 141C211.754 141 209.892 140.676 208.464 140.027C207.064 139.349 205.972 138.316 205.188 136.93C204.432 135.515 203.9 133.908 203.592 132.109C203.312 130.28 203.172 128.01 203.172 125.297C203.172 122.584 203.312 120.313 203.592 118.484C203.9 116.627 204.432 114.99 205.188 113.574C205.972 112.159 207.064 111.127 208.464 110.478C209.864 109.829 211.684 109.505 213.924 109.505C216.165 109.505 218.797 109.829 221.821 110.478L221.695 113.353C218.867 112.822 216.347 112.557 214.134 112.557C211.054 112.557 209.01 113.53 208.002 115.476C207.022 117.393 206.532 120.681 206.532 125.341C206.532 127.671 206.616 129.543 206.784 130.959C206.98 132.374 207.344 133.657 207.876 134.807C208.408 135.928 209.178 136.739 210.186 137.24C211.222 137.712 212.72 137.948 214.68 137.948C216.669 137.948 219.007 137.682 221.695 137.152L221.821 140.071Z" fill="#74787C"/>
<path d="M232.581 125.385C232.581 129.868 233.141 133.097 234.261 135.073C235.381 137.019 237.537 137.992 240.729 137.992C243.949 137.992 246.105 137.034 247.197 135.117C248.317 133.2 248.877 129.986 248.877 125.474C248.877 120.962 248.303 117.673 247.155 115.609C246.007 113.545 243.851 112.513 240.687 112.513C237.551 112.513 235.409 113.545 234.261 115.609C233.141 117.644 232.581 120.903 232.581 125.385ZM252.237 125.474C252.237 130.929 251.411 134.881 249.759 137.329C248.107 139.776 245.097 141 240.729 141C236.389 141 233.393 139.747 231.741 137.24C230.089 134.733 229.263 130.797 229.263 125.429C229.263 120.033 230.103 116.037 231.783 113.442C233.463 110.817 236.445 109.505 240.729 109.505C245.013 109.505 247.995 110.802 249.675 113.397C251.383 115.993 252.237 120.018 252.237 125.474Z" fill="#74787C"/>
<path d="M261.946 140.558V109.947H267.994L279.124 137.55H280.006V109.947H283.198V140.558H277.276L265.978 112.955H265.18V140.558H261.946Z" fill="#74787C"/>
<path d="M302.131 112.469C297.931 112.469 295.831 114.135 295.831 117.467C295.831 119.325 296.307 120.608 297.259 121.315C298.239 121.994 300.199 122.687 303.139 123.395C306.107 124.073 308.207 124.972 309.439 126.093C310.671 127.184 311.287 128.998 311.287 131.534C311.287 137.815 308.193 140.956 302.005 140.956C299.961 140.956 297.399 140.705 294.319 140.204L292.807 139.983L293.143 137.152C296.951 137.682 299.849 137.948 301.837 137.948C305.981 137.948 308.053 135.898 308.053 131.799C308.053 130.148 307.591 128.968 306.667 128.26C305.771 127.523 304.077 126.904 301.585 126.403C298.309 125.665 295.985 124.722 294.613 123.571C293.241 122.392 292.555 120.431 292.555 117.688C292.555 112.203 295.677 109.461 301.921 109.461C303.965 109.461 306.415 109.682 309.271 110.124L310.699 110.345L310.405 113.221C306.513 112.719 303.755 112.469 302.131 112.469Z" fill="#74787C"/>
<path d="M317.629 112.999V109.947H338.629V112.999H329.767V140.558H326.575V112.999H317.629Z" fill="#74787C"/>
<path d="M349.775 128.835V140.558H346.541V109.947H357.293C360.373 109.947 362.683 110.699 364.223 112.203C365.791 113.707 366.575 116.052 366.575 119.236C366.575 123.955 364.797 126.919 361.241 128.128L366.827 140.558H363.257L358.007 128.835H349.775ZM357.335 125.827C361.283 125.827 363.257 123.689 363.257 119.413C363.257 115.108 361.269 112.955 357.293 112.955H349.775V125.827H357.335Z" fill="#74787C"/>
<path d="M379.226 131.357C379.226 135.78 381.494 137.992 386.03 137.992C388.382 137.992 390.146 137.476 391.322 136.444C392.526 135.382 393.128 133.687 393.128 131.357V109.947H396.32V131.268C396.32 134.689 395.452 137.166 393.716 138.7C392.008 140.233 389.474 141 386.114 141C382.754 141 380.22 140.233 378.512 138.7C376.832 137.166 375.992 134.689 375.992 131.268V109.947H379.226V131.357Z" fill="#74787C"/>
<path d="M424.568 140.071C421.684 140.69 419.094 141 416.798 141C414.502 141 412.64 140.676 411.212 140.027C409.812 139.349 408.72 138.316 407.936 136.93C407.18 135.515 406.648 133.908 406.34 132.109C406.06 130.28 405.92 128.01 405.92 125.297C405.92 122.584 406.06 120.313 406.34 118.484C406.648 116.627 407.18 114.99 407.936 113.574C408.72 112.159 409.812 111.127 411.212 110.478C412.612 109.829 414.432 109.505 416.672 109.505C418.912 109.505 421.544 109.829 424.568 110.478L424.442 113.353C421.614 112.822 419.094 112.557 416.882 112.557C413.802 112.557 411.758 113.53 410.75 115.476C409.77 117.393 409.28 120.681 409.28 125.341C409.28 127.671 409.364 129.543 409.532 130.959C409.728 132.374 410.092 133.657 410.624 134.807C411.156 135.928 411.926 136.739 412.934 137.24C413.97 137.712 415.468 137.948 417.428 137.948C419.416 137.948 421.754 137.682 424.442 137.152L424.568 140.071Z" fill="#74787C"/>
<path d="M430.614 112.999V109.947H451.614V112.999H442.752V140.558H439.56V112.999H430.614Z" fill="#74787C"/>
<path d="M459.525 140.558V109.947H462.759V140.558H459.525Z" fill="#74787C"/>
<path d="M475.784 125.385C475.784 129.868 476.344 133.097 477.464 135.073C478.584 137.019 480.74 137.992 483.932 137.992C487.152 137.992 489.308 137.034 490.4 135.117C491.52 133.2 492.08 129.986 492.08 125.474C492.08 120.962 491.506 117.673 490.358 115.609C489.21 113.545 487.054 112.513 483.89 112.513C480.754 112.513 478.612 113.545 477.464 115.609C476.344 117.644 475.784 120.903 475.784 125.385ZM495.44 125.474C495.44 130.929 494.614 134.881 492.962 137.329C491.31 139.776 488.3 141 483.932 141C479.592 141 476.596 139.747 474.944 137.24C473.292 134.733 472.466 130.797 472.466 125.429C472.466 120.033 473.306 116.037 474.986 113.442C476.666 110.817 479.648 109.505 483.932 109.505C488.216 109.505 491.198 110.802 492.878 113.397C494.586 115.993 495.44 120.018 495.44 125.474Z" fill="#74787C"/>
<path d="M505.148 140.558V109.947H511.197L522.327 137.55H523.209V109.947H526.401V140.558H520.479L509.181 112.955H508.383V140.558H505.148Z" fill="#74787C"/>
<path fill-rule="evenodd" clip-rule="evenodd" d="M132.099 80.724V8.38666L71.3862 44.5903V63.9196L132.099 80.724ZM31.8083 136.331V61.6394L4.51668 89.8254V136.331H31.8083ZM161.711 136.331V83.2606L136.616 76.3151V136.331H161.711ZM114.943 13.2423L104.003 6.7202V19.7683L114.943 13.2423ZM119.452 10.5581L134.356 1.67034L155.183 14.0891V76.6298L166.232 79.6869V136.331V141H3.90083e-06L4.57738e-05 136.331V87.8948L33.3915 53.4043L44.8129 56.5663V33.9545L101.746 0L119.452 10.5581ZM66.8695 62.6727V41.9139L99.4863 22.4641V6.71632L49.3295 36.6271V57.8171L66.8695 62.6727Z" fill="#121212"/>
<path d="M132.076 8.96073L134.403 7.42104L150.546 16.5258L150.497 74.2105L132.076 69.2949V8.96073Z" fill="white"/>
<rect x="132.076" y="5.67508" width="4.51873" height="68.043" fill="#121212"/>
</svg>
