<svg width="115" height="99" viewBox="0 0 115 99" fill="none" xmlns="http://www.w3.org/2000/svg">
<path fill-rule="evenodd" clip-rule="evenodd" d="M91.3979 56.5698V6.54934L49.4154 31.5837V44.9498L91.3979 56.5698ZM22.0478 95.0212V43.373L3.17596 62.8633V95.0212H22.0478ZM111.874 95.0212V58.3238L94.5211 53.5211V95.0212H111.874ZM79.5344 9.90696L71.9696 5.397V14.4196L79.5344 9.90696ZM82.6524 8.05087L92.9582 1.90508L107.36 10.4925V53.7387L115 55.8526V95.0212V98.2499H0.0527371L0.052766 95.0212V61.5283L23.1426 37.6785L31.0403 39.865V24.2292L70.4093 0.750061L82.6524 8.05087ZM46.2922 44.0875V29.733L68.8464 16.2837V5.39432L34.1635 26.0772V40.7299L46.2922 44.0875Z" fill="#121212"/>
<path d="M91.3816 6.9463L92.991 5.88162L104.154 12.1775L104.12 52.0658L91.3816 48.6667V6.9463Z" fill="white"/>
<rect x="91.3816" y="4.67432" width="3.12465" height="47.051" fill="#121212"/>
</svg>
