<svg width="364" height="97" viewBox="0 0 364 97" fill="none" xmlns="http://www.w3.org/2000/svg">
<path d="M140.705 64.2529V25.0892H156.287C159.143 25.0892 161.625 25.5648 163.733 26.5159C165.842 27.4484 167.471 28.7911 168.621 30.5442C169.771 32.2972 170.346 34.3859 170.346 36.8103C170.346 38.7499 169.934 40.4563 169.109 41.9296C168.285 43.4029 167.145 44.6244 165.688 45.5942C164.251 46.564 162.583 47.2447 160.686 47.6363L172.387 64.2529H163.417L153.01 48.9231H148.18V64.2529H140.705ZM148.18 42.9646H155.195C157.591 42.9646 159.459 42.4798 160.801 41.51C162.143 40.5216 162.813 39.0856 162.813 37.202C162.813 35.2438 162.2 33.7519 160.973 32.7261C159.747 31.7004 157.945 31.1876 155.568 31.1876H148.18V42.9646Z" fill="white"/>
<path d="M176.462 64.2529V25.0892H203.228V31.4673H183.937V40.9505H200.439V46.909H183.937V57.8189H203.429V64.2529H176.462Z" fill="white"/>
<path d="M209.243 64.2529V25.0892H216.488L235.549 52.0562V25.0892H242.822V64.2529H235.577L216.517 36.9502V64.2529H209.243Z" fill="white"/>
<path d="M268.883 65.0921C265.836 65.0921 263.009 64.5792 260.402 63.5535C257.815 62.5092 255.563 61.0638 253.646 59.2176C251.729 57.3713 250.244 55.2079 249.19 52.7276C248.136 50.2472 247.609 47.5617 247.609 44.6711C247.609 41.7618 248.136 39.0669 249.19 36.5866C250.244 34.1062 251.729 31.9429 253.646 30.0966C255.563 28.2503 257.815 26.8143 260.402 25.7886C263.009 24.7629 265.836 24.25 268.883 24.25C271.911 24.25 274.719 24.7722 277.307 25.8165C279.894 26.8609 282.146 28.3156 284.063 30.1805C285.979 32.0454 287.474 34.2181 288.548 36.6985C289.621 39.1602 290.158 41.8177 290.158 44.6711C290.158 47.5617 289.621 50.2472 288.548 52.7276C287.474 55.2079 285.979 57.3713 284.063 59.2176C282.146 61.0638 279.894 62.5092 277.307 63.5535C274.719 64.5792 271.911 65.0921 268.883 65.0921ZM268.883 58.2385C270.781 58.2385 272.544 57.9214 274.173 57.2873C275.821 56.6346 277.249 55.7208 278.457 54.5459C279.683 53.3523 280.632 51.9257 281.303 50.2659C281.993 48.5874 282.338 46.7225 282.338 44.6711C282.338 41.9296 281.744 39.5425 280.555 37.5097C279.367 35.4769 277.757 33.901 275.726 32.7821C273.694 31.6631 271.413 31.1036 268.883 31.1036C266.967 31.1036 265.194 31.4207 263.565 32.0548C261.935 32.6888 260.508 33.6027 259.281 34.7962C258.073 35.9898 257.125 37.4165 256.435 39.0762C255.764 40.736 255.428 42.601 255.428 44.6711C255.428 47.4125 256.013 49.7996 257.182 51.8324C258.37 53.8652 259.98 55.4411 262.012 56.56C264.044 57.679 266.334 58.2385 268.883 58.2385Z" fill="white"/>
<path d="M304.386 64.2529L289.12 25.0892H297.544L308.583 54.7417L319.278 25.0892H327.529L312.579 64.2529H304.386Z" fill="white"/>
<path d="M323.537 64.2529L338.976 25.0892H347.313L363.068 64.2529H354.644L351.223 55.3851H335.037L331.731 64.2529H323.537ZM336.877 49.2028H349.326L343.001 33.3136L336.877 49.2028Z" fill="white"/>
<path d="M153.534 96.3609C151.55 96.787 149.768 97 148.189 97C146.609 97 145.328 96.7768 144.346 96.3305C143.383 95.8639 142.631 95.1538 142.092 94.2003C141.572 93.2265 141.206 92.1209 140.994 90.8833C140.801 89.6255 140.705 88.0634 140.705 86.1969C140.705 84.3305 140.801 82.7684 140.994 81.5106C141.206 80.2324 141.572 79.1065 142.092 78.1327C142.631 77.1589 143.383 76.4488 144.346 76.0025C145.309 75.5562 146.561 75.333 148.102 75.333C149.643 75.333 151.454 75.5562 153.534 76.0025L153.447 77.9805C151.502 77.6154 149.768 77.4328 148.246 77.4328C146.128 77.4328 144.721 78.1023 144.028 79.4412C143.354 80.7599 143.017 83.022 143.017 86.2274C143.017 87.8301 143.074 89.1183 143.19 90.0921C143.325 91.0659 143.575 91.9484 143.941 92.7396C144.307 93.5105 144.837 94.0685 145.53 94.4133C146.243 94.7379 147.274 94.9002 148.622 94.9002C149.99 94.9002 151.598 94.7176 153.447 94.3525L153.534 96.3609Z" fill="white"/>
<path d="M160.937 86.2578C160.937 89.3415 161.322 91.563 162.092 92.9222C162.863 94.2612 164.346 94.9307 166.542 94.9307C168.757 94.9307 170.241 94.2713 170.992 92.9526C171.762 91.634 172.148 89.4226 172.148 86.3187C172.148 83.2147 171.753 80.9527 170.963 79.5325C170.173 78.1124 168.69 77.4024 166.513 77.4024C164.356 77.4024 162.882 78.1124 162.092 79.5325C161.322 80.9324 160.937 83.1741 160.937 86.2578ZM174.459 86.3187C174.459 90.0718 173.891 92.7903 172.754 94.4742C171.618 96.1581 169.547 97 166.542 97C163.556 97 161.495 96.1378 160.359 94.4133C159.222 92.6889 158.654 89.9805 158.654 86.2882C158.654 82.5756 159.232 79.8267 160.388 78.0414C161.543 76.2358 163.595 75.333 166.542 75.333C169.489 75.333 171.541 76.2257 172.697 78.011C173.872 79.7963 174.459 82.5655 174.459 86.3187Z" fill="white"/>
<path d="M181.138 96.6957V75.6374H185.299L192.956 94.6264H193.562V75.6374H195.758V96.6957H191.684L183.912 77.7067H183.363V96.6957H181.138Z" fill="white"/>
<path d="M208.783 77.3719C205.894 77.3719 204.449 78.5182 204.449 80.8106C204.449 82.0887 204.777 82.9712 205.432 83.4581C206.106 83.9248 207.454 84.4015 209.477 84.8884C211.519 85.355 212.963 85.9738 213.811 86.7447C214.658 87.4953 215.082 88.743 215.082 90.4877C215.082 94.8089 212.954 96.9696 208.697 96.9696C207.29 96.9696 205.528 96.7971 203.409 96.4522L202.369 96.3001L202.6 94.3525C205.22 94.7176 207.213 94.9002 208.581 94.9002C211.432 94.9002 212.857 93.4903 212.857 90.6703C212.857 89.5342 212.539 88.7227 211.904 88.2358C211.287 87.7286 210.122 87.3026 208.408 86.9577C206.154 86.4505 204.555 85.8013 203.611 85.0101C202.667 84.1986 202.195 82.8495 202.195 80.9628C202.195 77.1893 204.343 75.3026 208.639 75.3026C210.045 75.3026 211.73 75.4548 213.695 75.7591L214.678 75.9112L214.475 77.8893C211.798 77.5444 209.9 77.3719 208.783 77.3719Z" fill="white"/>
<path d="M219.445 77.7371V75.6374H233.892V77.7371H227.795V96.6957H225.599V77.7371H219.445Z" fill="white"/>
<path d="M241.559 88.6314V96.6957H239.335V75.6374H246.731C248.85 75.6374 250.439 76.1547 251.499 77.1893C252.578 78.224 253.117 79.8368 253.117 82.0279C253.117 85.2739 251.894 87.3127 249.447 88.1445L253.29 96.6957H250.834L247.223 88.6314H241.559ZM246.76 86.5621C249.476 86.5621 250.834 85.0913 250.834 82.1496C250.834 79.1876 249.467 77.7067 246.731 77.7067H241.559V86.5621H246.76Z" fill="white"/>
<path d="M261.82 90.366C261.82 93.4091 263.38 94.9307 266.501 94.9307C268.119 94.9307 269.333 94.5756 270.142 93.8656C270.97 93.1352 271.384 91.9687 271.384 90.366V75.6374H273.58V90.3051C273.58 92.6585 272.983 94.3626 271.788 95.4176C270.613 96.4725 268.87 97 266.559 97C264.247 97 262.504 96.4725 261.329 95.4176C260.173 94.3626 259.595 92.6585 259.595 90.3051V75.6374H261.82V90.366Z" fill="white"/>
<path d="M293.013 96.3609C291.029 96.787 289.247 97 287.667 97C286.088 97 284.807 96.7768 283.824 96.3305C282.861 95.8639 282.11 95.1538 281.571 94.2003C281.051 93.2265 280.685 92.1209 280.473 90.8833C280.28 89.6255 280.184 88.0634 280.184 86.1969C280.184 84.3305 280.28 82.7684 280.473 81.5106C280.685 80.2324 281.051 79.1065 281.571 78.1327C282.11 77.1589 282.861 76.4488 283.824 76.0025C284.788 75.5562 286.04 75.333 287.581 75.333C289.122 75.333 290.932 75.5562 293.013 76.0025L292.926 77.9805C290.98 77.6154 289.247 77.4328 287.725 77.4328C285.606 77.4328 284.2 78.1023 283.507 79.4412C282.832 80.7599 282.495 83.022 282.495 86.2274C282.495 87.8301 282.553 89.1183 282.669 90.0921C282.803 91.0659 283.054 91.9484 283.42 92.7396C283.786 93.5105 284.316 94.0685 285.009 94.4133C285.722 94.7379 286.752 94.9002 288.101 94.9002C289.468 94.9002 291.077 94.7176 292.926 94.3525L293.013 96.3609Z" fill="white"/>
<path d="M297.172 77.7371V75.6374H311.619V77.7371H305.522V96.6957H303.326V77.7371H297.172Z" fill="white"/>
<path d="M317.061 96.6957V75.6374H319.286V96.6957H317.061Z" fill="white"/>
<path d="M328.246 86.2578C328.246 89.3415 328.631 91.563 329.402 92.9222C330.172 94.2612 331.656 94.9307 333.852 94.9307C336.067 94.9307 337.55 94.2713 338.301 92.9526C339.072 91.634 339.457 89.4226 339.457 86.3187C339.457 83.2147 339.062 80.9527 338.272 79.5325C337.483 78.1124 335.999 77.4024 333.823 77.4024C331.665 77.4024 330.192 78.1124 329.402 79.5325C328.631 80.9324 328.246 83.1741 328.246 86.2578ZM341.768 86.3187C341.768 90.0718 341.2 92.7903 340.064 94.4742C338.927 96.1581 336.857 97 333.852 97C330.866 97 328.805 96.1378 327.668 94.4133C326.532 92.6889 325.964 89.9805 325.964 86.2882C325.964 82.5756 326.541 79.8267 327.697 78.0414C328.853 76.2358 330.904 75.333 333.852 75.333C336.799 75.333 338.85 76.2257 340.006 78.011C341.181 79.7963 341.768 82.5655 341.768 86.3187Z" fill="white"/>
<path d="M348.448 96.6957V75.6374H352.608L360.265 94.6264H360.872V75.6374H363.068V96.6957H358.994L351.221 77.7067H350.672V96.6957H348.448Z" fill="white"/>
<path fill-rule="evenodd" clip-rule="evenodd" d="M91.8105 55.5336V5.76955L50.0432 30.6756V43.9731L91.8105 55.5336ZM22.8159 93.7879V42.4044L4.04081 61.7948V93.7879H22.8159ZM112.182 93.7879V57.2786L94.9177 52.5005V93.7879H112.182ZM80.0078 9.10995L72.4817 4.62312V13.5995L80.0078 9.10995ZM83.1098 7.26337L93.3628 1.1491L107.69 9.69252V52.7169L115.292 54.82V93.7879V97H0.933596L0.933625 93.7879V60.4667L23.9051 36.7391L31.7623 38.9144V23.3588L70.9294 0L83.1098 7.26337ZM46.936 43.1153V28.8344L69.3745 15.454V4.62045L34.8695 25.1973V39.7749L46.936 43.1153Z" fill="white"/>
<path d="M91.7949 6.16445L93.396 5.10522L104.501 11.3688L104.468 51.0526L91.7949 47.6709V6.16445Z" fill="white"/>
<rect x="91.7949" y="3.90405" width="3.10863" height="46.8097" fill="white"/>
</svg>
